<?xml version="1.0" encoding="utf-8"?>
<!-- Generator: Adobe Illustrator 15.1.0, SVG Export Plug-In . SVG Version: 6.00 Build 0)  -->
<!DOCTYPE svg PUBLIC "-//W3C//DTD SVG 1.1//EN" "http://www.w3.org/Graphics/SVG/1.1/DTD/svg11.dtd">
<svg version="1.1" id="Calque_1" xmlns="http://www.w3.org/2000/svg" xmlns:xlink="http://www.w3.org/1999/xlink" x="0px" y="0px"
	 width="841.89px" height="595.28px" viewBox="0 0 841.89 595.28" enable-background="new 0 0 841.89 595.28" xml:space="preserve">
<path fill="#FCE866" stroke="#000000" stroke-width="4" stroke-linecap="round" stroke-miterlimit="10" d="M401.945,69.79
	c-12.671-12.771-17.789-18.474-28.377-17.84c-10.587,0.634-28.962,5.229-25.476,38.05c2.218,20.871,17.898,33.601,24.736,36.321
	c6.838,2.72,40.796-15.906,40.796-15.906l4.159-27.523L401.945,69.79z"/>
<path fill="#FCE866" stroke="#000000" stroke-width="4" stroke-linecap="round" stroke-miterlimit="10" d="M461.183,76.696
	c15.205-19.678,11.403-43.119-5.068-50.722c-16.473-7.603-46.686-5.472-54.169,43.815c-2.534,16.688,6.019,35.613,8.553,38.506
	c2.534,2.892,21.541,10.178,21.541,10.178L461.183,76.696z"/>
<path stroke="#000000" stroke-width="4" stroke-linecap="round" stroke-miterlimit="10" d="M424.886,199.264
	c4.543-1.754,9.079-4.441,13.488-8.248c6.234-5.385,10.669-10.277,13.748-14.705c-31.551-3.934-50.494-53.206-29.897-69.678
	c-9.794-0.762-23.847,0.994-37.784,9.901C368.056,141.49,391.181,190.699,424.886,199.264z"/>
<path fill="#FCE866" stroke="#000000" stroke-width="4" stroke-linecap="round" stroke-miterlimit="10" d="M452.122,176.311
	c10.423-14.959,5.475-24.633,2.617-30.277c0,0-17.632-31.995-19.533-35.479c-0.773-1.419-5.701-3.364-12.981-3.921
	C401.628,123.104,420.571,172.377,452.122,176.311z"/>
<path fill="#FCE866" stroke="#000000" stroke-width="4" stroke-linecap="round" stroke-miterlimit="10" d="M372.485,180.244
	c8.395,14.166,30.479,27.465,52.4,19.02c-33.705-8.564-56.83-57.773-40.445-82.729c-1.135,0.723-2.269,1.495-3.402,2.319
	C355.695,137.283,362.893,164.059,372.485,180.244z"/>
<ellipse transform="matrix(-0.8032 0.5958 -0.5958 -0.8032 914.3032 -69.7804)" fill="#FCE866" stroke="#000000" stroke-width="4" stroke-linecap="round" stroke-miterlimit="10" cx="468.679" cy="116.151" rx="37.555" ry="40.456"/>
<ellipse fill="#FFFFFF" stroke="#000000" stroke-width="4" stroke-miterlimit="10" cx="488.108" cy="118.474" rx="13.938" ry="13.196"/>
<ellipse fill="#FFFFFF" stroke="#000000" stroke-width="4" stroke-miterlimit="10" cx="468.678" cy="96.088" rx="13.938" ry="13.196"/>
<path fill="none" stroke="#000000" stroke-width="4" stroke-linecap="round" stroke-miterlimit="10" d="M468.679,131.67
	c-8.608,4.966-24.497-7.283-13.938-18.266"/>
<circle stroke="#000000" stroke-linecap="round" stroke-miterlimit="10" cx="467.805" cy="103.649" r="4.646"/>
<circle stroke="#000000" stroke-linecap="round" stroke-miterlimit="10" cx="479.949" cy="118.851" r="4.893"/>
<path fill="none" stroke="#000000" stroke-linecap="round" stroke-miterlimit="10" d="M384.446,116.521
	c0,0.007-0.006,0.007-0.006,0.013"/>
<path stroke="#000000" stroke-width="4" stroke-linecap="round" stroke-miterlimit="10" d="M373.568,181.955
	c-6.152,2.408-21.188,7.006-21.674,2.725c-0.287-2.533,12.473-9.969,14.789-16.863"/>
<line fill="none" stroke="#000000" stroke-width="4" stroke-linecap="round" stroke-miterlimit="10" x1="548.296" y1="86.479" x2="505.397" y2="106.629"/>
<line fill="none" stroke="#000000" stroke-width="4" stroke-linecap="round" stroke-miterlimit="10" x1="523.904" y1="51.95" x2="493.312" y2="87.63"/>
<g>
	<path fill="#FFED00" d="M528.552,51.534c-2.565,0-4.652-2.087-4.652-4.652s2.087-4.652,4.652-4.652s4.652,2.087,4.652,4.652
		S531.117,51.534,528.552,51.534z"/>
	<path d="M528.552,44.229c1.463,0,2.652,1.19,2.652,2.652s-1.189,2.652-2.652,2.652s-2.652-1.19-2.652-2.652
		S527.089,44.229,528.552,44.229 M528.552,40.229c-3.674,0-6.652,2.979-6.652,6.652s2.979,6.652,6.652,6.652
		s6.652-2.979,6.652-6.652S532.226,40.229,528.552,40.229L528.552,40.229z"/>
</g>
<ellipse cx="467.805" cy="103.649" rx="2.428" ry="2.326"/>
<ellipse cx="479.949" cy="118.851" rx="2.429" ry="2.326"/>
<g>
	<path fill="#FFED00" d="M554.314,88c-2.565,0-4.652-2.087-4.652-4.652c0-2.565,2.087-4.651,4.652-4.651s4.652,2.086,4.652,4.651
		C558.967,85.913,556.88,88,554.314,88z"/>
	<path d="M554.314,80.696c1.463,0,2.652,1.189,2.652,2.651c0,1.462-1.189,2.652-2.652,2.652s-2.652-1.19-2.652-2.652
		C551.662,81.886,552.852,80.696,554.314,80.696 M554.314,76.696c-3.674,0-6.652,2.978-6.652,6.651c0,3.675,2.979,6.652,6.652,6.652
		s6.652-2.978,6.652-6.652C560.967,79.674,557.988,76.696,554.314,76.696L554.314,76.696z"/>
</g>
<g>
	<path fill-rule="evenodd" clip-rule="evenodd" d="M437.435,260.898c9.618-4.027,24.219-11.916,38.027-12.391
		c13.608-0.465,19.711,8.645,11.537,18.373c-8.501,10.119-25.44,14.906-38.454,20.51c11.729,1.23,27.881-0.457,38.881,2.99
		c5.211,1.635,13.681,6.314,12.391,13.674c-0.575,3.281-5.361,7.312-8.544,8.545c-11.521,4.459-31.805,4.727-45.72,3.844
		c6.864,2.857,14.668,5.738,21.791,9.402c6.657,3.422,14.439,7.613,18.799,12.391c8.438,9.238,3.248,19.193-12.389,17.945
		c-13.712-1.094-28.065-8.502-37.173-11.965c4.27,4.604,10.379,9.912,15.81,16.238c4.851,5.648,11.064,12.934,12.391,20.08
		c1.679,9.057-3.801,14.578-14.527,11.537c-2.633-0.746-6.507-3.078-8.974-4.699c-9.058-5.957-17.832-15.811-24.781-22.219
		c2.545,9.086,20.141,39.525,8.546,50.418c-8.241,7.74-17.656-4.611-21.363-10.254c-5.38-8.195-10.734-19.143-13.674-29.482
		c-1.381,8.16,0.488,17.291-0.854,26.062c-0.771,5.055-2.186,9.949-3.417,14.1c0,0,0,19.266,0,29.057c0,28.617,0,58.35,0,87.162
		c-5.44,0.709-13.788,0.709-19.228,0c0-28.439,0-55.873,0-84.6c0-9.186,0-27.773,0-27.773c-0.333-1.83-1.893-3.225-2.563-5.127
		c-4.072-11.525-3.227-26.711-2.99-40.162c-5.957,11.801-10.432,27.502-19.229,36.744c-4.458,4.684-15.563,11.021-19.653,1.709
		c-1.471-3.348-1.207-8.021-0.855-11.963c1.195-13.33,8.645-27.582,12.391-37.174c-4.479,3.986-9.544,10.111-15.809,15.383
		c-5.493,4.621-12.816,11.121-19.227,12.393c-20.577,4.078-13.879-15.572-8.118-23.93c6.293-9.125,16.46-18.361,23.071-25.209
		c-11.426,3.889-28.894,15.025-45.289,12.816c-9.971-1.34-10.754-12.113-4.7-18.797c4.049-4.473,11.267-8.324,17.519-11.537
		c6.675-3.432,13.865-6.285,20.508-8.547c-9.946-0.801-20.99-0.074-31.19-1.707c-7.764-1.244-19.153-4.977-19.654-12.393
		c-0.312-4.611,4.078-9.191,8.119-11.107c10.496-4.98,26.462-3.404,41.019-4.271c-10.809-5.662-28.492-10.445-36.319-20.084
		c-2.458-3.023-4.318-6.588-3.845-12.391c2.145-4.83,8.213-6.252,15.381-5.982c14.297,0.541,29.987,9.111,39.31,13.248
		c-4.754-4.15-10.347-9.992-15.81-16.238c-5.078-5.807-11.432-12.674-13.246-19.654c-2.586-9.953,2.79-16.906,13.246-14.1
		c6.995,1.877,14.372,8.211,20.082,13.244c6.145,5.42,11.934,11.137,16.663,16.238c-1.963-5.707-6.091-11.865-8.544-18.801
		c-3.512-9.922-9.754-33.955,2.136-36.318c6.023-1.197,11.911,3.99,14.525,7.264c7.855,9.828,12.994,23.949,17.521,36.746
		c1.408-10.631-0.909-28.662,2.99-40.592c2.532-7.748,12.081-18.393,19.227-8.545c7.482,10.312,7.156,30.258,7.265,47.855
		c4.463-11.123,8.739-24.457,15.808-33.328c2.242-2.812,7.263-7.887,10.682-8.547c10.127-1.949,12.133,7.348,11.537,16.238
		c-0.831,12.377-8.477,28.541-11.964,36.744c-0.081,0.346-0.43,0.426-0.427,0.855c5.953-5.6,15.719-17.029,25.208-23.074
		c6.86-4.367,19.6-10.129,23.928-0.426c0.402,12.752-6.543,21.168-12.817,28.199C447.466,251.035,442.178,256.199,437.435,260.898z
		 M385.736,220.309c-0.041-7.572-0.097-16.141-1.282-21.791c-0.335-1.592-1.961-4.549-2.991-7.691
		c-1.735-5.287-3.42-11.922-8.545-7.691c-2.271,1.877-4.992,12.65-5.556,15.383c-3.738,18.148,0.164,40.648,2.992,57.682
		c3.24-0.891,8.19-0.369,11.536,0C383.795,248.311,385.808,233.84,385.736,220.309z M338.31,195.527
		c-1.756-1.838-5.229-4.4-7.265-4.701c-6.433-0.943-3.887,15.502-2.99,19.229c4.488,18.67,16.089,38.207,24.354,51.701
		c3.705-1.566,6.695-3.844,11.536-4.273C358.351,236.271,350.951,208.758,338.31,195.527z M422.481,210.055
		c0.628-2.646,2.637-12.115,0.854-15.811c-2.481-5.143-9.14-0.029-11.536,2.564c-11.916,12.896-19.639,40.525-23.928,61.1
		c5.031,0.098,7.247,3.006,11.11,4.273C407.132,246.812,417.996,228.947,422.481,210.055z M313.953,228
		c-6.687-5.709-11.711-11.365-22.216-11.537c-5.682,5.381,3.651,16.797,7.263,21.365c10.471,13.246,27.072,28.771,40.163,35.463
		c2.518-2.893,5.574-5.25,8.118-8.117C338.996,251.201,326.373,238.604,313.953,228z M448.972,219.027
		c-5.047,2.545-10.597,6.916-14.953,10.682c-11.849,10.238-22.511,24.381-30.337,35.891c3.407,2.287,5.159,6.234,8.972,8.119
		c13.081-8.637,27.456-20.457,37.173-33.328c5.151-6.824,11.581-12.549,10.256-22.646
		C455.925,215.975,452.04,217.48,448.972,219.027z M307.973,263.891c-8.546-4.086-22.272-9.568-32.047-10.682
		c-13.252-1.51-13.391,6.588-6.836,12.391c7.324,6.482,18.133,10.869,27.347,14.525c10.657,4.23,22.232,7.432,34.608,9.83
		c1.087-4.041,2.707-7.547,4.272-11.109C327.824,274.037,318.194,268.779,307.973,263.891z M477.598,267.736
		c2.904-2.104,9.726-6.889,8.118-11.109c-0.874-2.303-5.614-3.66-9.827-3.418c-11.048,0.637-22.479,5.93-32.472,10.682
		c-10.177,4.838-20.255,9.461-27.773,15.381c1.439,3.547,3.354,6.617,3.846,11.109C440.667,285.746,461.993,279.041,477.598,267.736
		z M410.091,324.99c8.613-13.098,8.104-33.221,0-45.719c-7.104-10.953-21.003-19.576-38.456-18.373
		c-17.012,1.174-29.582,12.523-34.608,25.209c-9.479,23.93,4.574,46.326,22.646,54.691
		C381.768,348.168,401.542,337.988,410.091,324.99z M275.072,292.518c-6.096,0.516-19.353,2.572-19.227,8.973
		c0.058,2.963,4.826,5.922,7.69,6.836c17.977,5.738,49.915,1.922,65.8-1.281c-0.711-4.66,0.126-7.814,0.428-12.391
		C313.742,291.992,293.246,290.982,275.072,292.518z M471.617,311.318c6.635-0.535,23.225-2.119,23.073-8.975
		c-0.063-2.783-4.801-5.713-8.119-6.834c-19.494-6.592-47.675-1.299-65.372,0.428c0.315,4.562,0.626,8.768-0.427,12.816
		C436.271,311.229,453.03,312.814,471.617,311.318z M308.826,319.008c-11.967,4.199-23.462,8.967-33.754,15.383
		c-3.529,2.199-12.836,8.15-10.682,13.244c2.275,5.381,19.511,1.598,23.5,0.428c16.906-4.953,34-15.492,47-23.5
		c-1.939-3.188-2.884-7.369-4.272-11.107C322.635,314.467,316.076,316.467,308.826,319.008z M469.054,331.826
		c-6.417-3.379-14.433-7.318-21.362-9.4c-1.418-0.424-3.217-0.018-4.701-0.426c-7.158-1.971-14.779-6.545-23.501-6.41
		c-1.223,4.045-3.18,7.359-4.699,11.109c7.376,4.135,15.334,9.572,24.354,13.672c8.19,3.725,19.251,8.373,28.2,10.256
		c4.632,0.973,14.412,2.389,17.946-1.709C484.608,341.078,476.061,335.518,469.054,331.826z M337.881,329.691
		c-12.396,8.695-27.547,22.051-38.025,34.607c-5.256,6.297-12.114,12.961-9.828,22.646c7.014,1.072,13.525-2.779,18.372-6.41
		c15.224-11.398,27.653-26.965,38.027-42.299C343.303,335.664,340.969,332.299,337.881,329.691z M453.671,369.428
		c-12.282-14.352-25.902-27.363-41.872-38.027c-0.284,0-0.569,0-0.854,0c0.12,1.25-8.479,7.186-8.545,8.545
		c-0.018,0.377,3.209,4.012,4.272,5.555c1.695,2.459,2.965,4.484,4.272,5.98c9.208,10.541,20.553,23.363,30.336,30.336
		c4.835,3.447,11.162,6.859,17.946,5.557C462.855,380.412,455.416,375.105,453.671,369.428z M351.979,342.082
		c-5.229,6.6-9.944,15.629-14.526,25.209c-6.502,13.596-13.302,28.24-9.827,45.289c4.424,1.135,7.961-2.184,10.255-4.699
		c6.268-6.873,10.846-17.535,14.955-27.773c4.213-10.496,8.075-22.186,9.4-33.754C358.529,345.217,355.189,343.717,351.979,342.082z
		 M423.335,402.754c-0.554-14.414-11.205-35.344-17.519-47c-2.284-4.219-6.573-12.029-9.398-12.818
		c-2.264,2.58-7.241,2.443-10.255,4.273c5.708,22.775,13.193,43.775,24.781,60.672C416.478,413.65,423.806,414.936,423.335,402.754z
		 M368.645,347.635c0,0.428,0,0.855,0,1.283c-1.987,10.109-3.184,23.018-2.991,35.035c0.12,7.445-0.165,15.207,1.282,21.791
		c0.67,3.045,3.936,15.338,8.118,15.385c4.752,0.049,7.37-12.547,8.118-16.666c3.236-17.812,0.738-39.646-2.564-56.4
		C377.119,348.781,371.607,348.768,368.645,347.635z M371.635,425.826c0,34.041,0,68.078,0,102.119
		c2.899-0.236,6.77,0.5,8.973-0.428c-0.283-34.039,0.572-69.219-0.427-102.547C379.046,425.271,374.977,426.311,371.635,425.826z"/>
	<path fill-rule="evenodd" clip-rule="evenodd" fill="#FFEF55" d="M359.672,340.799c-18.071-8.365-32.124-30.762-22.646-54.691
		c5.026-12.686,17.597-24.035,34.608-25.209c17.453-1.203,31.353,7.42,38.456,18.373c8.104,12.498,8.613,32.621,0,45.719
		C401.542,337.988,381.768,348.168,359.672,340.799z"/>
	<g>
		<path fill-rule="evenodd" clip-rule="evenodd" fill="#E6B6C8" d="M419.489,290.381c-0.491-4.492-2.406-7.562-3.846-11.109
			c7.519-5.92,17.597-10.543,27.773-15.381c9.993-4.752,21.424-10.045,32.472-10.682c4.213-0.242,8.953,1.115,9.827,3.418
			c1.607,4.221-5.214,9.006-8.118,11.109C461.993,279.041,440.667,285.746,419.489,290.381z"/>
		<path fill-rule="evenodd" clip-rule="evenodd" fill="#E6B6C8" d="M420.772,308.754c1.053-4.049,0.742-8.254,0.427-12.816
			c17.697-1.727,45.878-7.02,65.372-0.428c3.318,1.121,8.056,4.051,8.119,6.834c0.151,6.855-16.438,8.439-23.073,8.975
			C453.03,312.814,436.271,311.229,420.772,308.754z"/>
		<g>
			<path fill-rule="evenodd" clip-rule="evenodd" fill="#E6B6C8" d="M381.891,256.199c-3.346-0.369-8.296-0.891-11.536,0
				c-2.828-17.033-6.73-39.533-2.992-57.682c0.563-2.732,3.285-13.506,5.556-15.383c5.125-4.23,6.81,2.404,8.545,7.691
				c1.03,3.143,2.656,6.1,2.991,7.691c1.186,5.65,1.241,14.219,1.282,21.791C385.808,233.84,383.795,248.311,381.891,256.199z"/>
			<path fill-rule="evenodd" clip-rule="evenodd" fill="#E6B6C8" d="M363.945,257.482c-4.841,0.43-7.831,2.707-11.536,4.273
				c-8.266-13.494-19.866-33.031-24.354-51.701c-0.896-3.727-3.442-20.172,2.99-19.229c2.036,0.301,5.509,2.863,7.265,4.701
				C350.951,208.758,358.351,236.271,363.945,257.482z"/>
			<path fill-rule="evenodd" clip-rule="evenodd" fill="#E6B6C8" d="M398.981,262.182c-3.863-1.268-6.079-4.176-11.11-4.273
				c4.289-20.574,12.012-48.203,23.928-61.1c2.396-2.594,9.055-7.707,11.536-2.564c1.783,3.695-0.226,13.164-0.854,15.811
				C417.996,228.947,407.132,246.812,398.981,262.182z"/>
			<path fill-rule="evenodd" clip-rule="evenodd" fill="#E6B6C8" d="M347.281,265.174c-2.544,2.867-5.601,5.225-8.118,8.117
				c-13.091-6.691-29.692-22.217-40.163-35.463c-3.611-4.568-12.944-15.984-7.263-21.365c10.505,0.172,15.529,5.828,22.216,11.537
				C326.373,238.604,338.996,251.201,347.281,265.174z"/>
			<path fill-rule="evenodd" clip-rule="evenodd" fill="#E6B6C8" d="M460.082,217.744c1.325,10.098-5.104,15.822-10.256,22.646
				c-9.717,12.871-24.092,24.691-37.173,33.328c-3.812-1.885-5.564-5.832-8.972-8.119c7.826-11.51,18.488-25.652,30.337-35.891
				c4.356-3.766,9.906-8.137,14.953-10.682C452.04,217.48,455.925,215.975,460.082,217.744z"/>
			<path fill-rule="evenodd" clip-rule="evenodd" fill="#E6B6C8" d="M335.317,278.846c-1.565,3.562-3.186,7.068-4.272,11.109
				c-12.376-2.398-23.951-5.6-34.608-9.83c-9.214-3.656-20.022-8.043-27.347-14.525c-6.555-5.803-6.416-13.9,6.836-12.391
				c9.774,1.113,23.501,6.596,32.047,10.682C318.194,268.779,327.824,274.037,335.317,278.846z"/>
			<path fill-rule="evenodd" clip-rule="evenodd" fill="#E6B6C8" d="M329.764,294.654c-0.302,4.576-1.139,7.73-0.428,12.391
				c-15.885,3.203-47.823,7.02-65.8,1.281c-2.864-0.914-7.633-3.873-7.69-6.836c-0.126-6.4,13.131-8.457,19.227-8.973
				C293.246,290.982,313.742,291.992,329.764,294.654z"/>
			<path fill-rule="evenodd" clip-rule="evenodd" fill="#E6B6C8" d="M330.618,313.455c1.389,3.738,2.333,7.92,4.272,11.107
				c-13,8.008-30.094,18.547-47,23.5c-3.989,1.17-21.225,4.953-23.5-0.428c-2.154-5.094,7.152-11.045,10.682-13.244
				c10.292-6.416,21.787-11.184,33.754-15.383C316.076,316.467,322.635,314.467,330.618,313.455z"/>
			<path fill-rule="evenodd" clip-rule="evenodd" fill="#E6B6C8" d="M485.29,348.918c-3.534,4.098-13.314,2.682-17.946,1.709
				c-8.949-1.883-20.01-6.531-28.2-10.256c-9.02-4.1-16.978-9.537-24.354-13.672c1.52-3.75,3.477-7.064,4.699-11.109
				c8.722-0.135,16.343,4.439,23.501,6.41c1.484,0.408,3.283,0.002,4.701,0.426c6.93,2.082,14.945,6.021,21.362,9.4
				C476.061,335.518,484.608,341.078,485.29,348.918z"/>
			<path fill-rule="evenodd" clip-rule="evenodd" fill="#E6B6C8" d="M346.427,338.236c-10.374,15.334-22.804,30.9-38.027,42.299
				c-4.847,3.631-11.358,7.482-18.372,6.41c-2.286-9.686,4.572-16.35,9.828-22.646c10.479-12.557,25.629-25.912,38.025-34.607
				C340.969,332.299,343.303,335.664,346.427,338.236z"/>
			<path fill-rule="evenodd" clip-rule="evenodd" fill="#E6B6C8" d="M459.227,387.373c-6.784,1.303-13.111-2.109-17.946-5.557
				c-9.783-6.973-21.128-19.795-30.336-30.336c-1.308-1.496-2.577-3.521-4.272-5.98c-1.063-1.543-4.29-5.178-4.272-5.555
				c0.066-1.359,8.665-7.295,8.545-8.545c0.285,0,0.57,0,0.854,0c15.97,10.664,29.59,23.676,41.872,38.027
				C455.416,375.105,462.855,380.412,459.227,387.373z"/>
			<path fill-rule="evenodd" clip-rule="evenodd" fill="#E6B6C8" d="M362.236,346.354c-1.325,11.568-5.188,23.258-9.4,33.754
				c-4.109,10.238-8.688,20.9-14.955,27.773c-2.294,2.516-5.831,5.834-10.255,4.699c-3.475-17.049,3.325-31.693,9.827-45.289
				c4.582-9.58,9.297-18.609,14.526-25.209C355.189,343.717,358.529,345.217,362.236,346.354z"/>
			<path fill-rule="evenodd" clip-rule="evenodd" fill="#E6B6C8" d="M410.944,407.881c-11.588-16.896-19.073-37.896-24.781-60.672
				c3.014-1.83,7.991-1.693,10.255-4.273c2.825,0.789,7.114,8.6,9.398,12.818c6.313,11.656,16.965,32.586,17.519,47
				C423.806,414.936,416.478,413.65,410.944,407.881z"/>
			<path fill-rule="evenodd" clip-rule="evenodd" fill="#E6B6C8" d="M380.607,348.062c3.303,16.754,5.801,38.588,2.564,56.4
				c-0.748,4.119-3.366,16.715-8.118,16.666c-4.183-0.047-7.448-12.34-8.118-15.385c-1.447-6.584-1.162-14.346-1.282-21.791
				c-0.192-12.018,1.004-24.926,2.991-35.035c0-0.428,0-0.855,0-1.283C371.607,348.768,377.119,348.781,380.607,348.062z"/>
		</g>
	</g>
	<path fill-rule="evenodd" clip-rule="evenodd" fill="#386539" d="M380.181,424.971c0.999,33.328,0.144,68.508,0.427,102.547
		c-2.203,0.928-6.073,0.191-8.973,0.428c0-34.041,0-68.078,0-102.119C374.977,426.311,379.046,425.271,380.181,424.971z"/>
	<path fill-rule="evenodd" clip-rule="evenodd" d="M455.908,423.754c-8.221,0.051-17.886,2.393-25.371,5.486
		c-1.93,0.795-29.429,15.338-36.581,20.721c-7.997,6.016-16.636,11.869-20.148,20.457c-4.605,11.262,6.692,15.098,14.945,13.33
		c2.205-0.469,5.673-1.76,8.153-2.734c12.099-4.76,24.13-13.809,36.033-22.959c11.697-8.99,22.628-20.74,26.831-34.182
		C457.771,423.334,456.917,423.746,455.908,423.754z M446.928,438.451c-3.827,4.562-9.382,9.553-14.476,13.92
		c-5.007,4.307-10.179,8.605-15.51,12.057c-10.988,7.102-23.892,15.611-38.589,13.535c-1.222-4.527,1.582-8.682,4.273-11.91
		c6.254-7.504,16.2-14.246,26.13-20.047c13.716-7.998,27.326-14.17,42.93-16.809C451.609,431.777,448.713,436.324,446.928,438.451z"
		/>
	<path fill-rule="evenodd" clip-rule="evenodd" fill="#386539" d="M451.687,429.197c-0.077,2.58-2.974,7.127-4.759,9.254
		c-3.827,4.562-9.382,9.553-14.476,13.92c-5.007,4.307-10.179,8.605-15.51,12.057c-10.988,7.102-23.892,15.611-38.589,13.535
		c-1.222-4.527,1.582-8.682,4.273-11.91c6.254-7.504,16.2-14.246,26.13-20.047C422.473,438.008,436.083,431.836,451.687,429.197z"/>
	<rect x="371.635" y="454.867" fill-rule="evenodd" clip-rule="evenodd" fill="#386539" width="8.979" height="33.539"/>
</g>
<g>
	<path fill="#C93D8A" d="M358.56,297.426c-1.377-1.756-3.134-2.652-5.304-2.652c-1.791,0-3.271,0.654-4.442,1.963
		c-1.17,1.309-1.756,2.893-1.756,4.787c0,1.929,0.586,3.546,1.722,4.855c1.171,1.274,2.686,1.928,4.546,1.928
		c1.481,0,2.721-0.379,3.789-1.103v-2.1h-4.718v-5.131h10.606v9.986c-2.721,2.721-5.785,4.029-10.193,4.029
		c-3.547,0-6.475-1.171-8.782-3.547c-2.307-2.377-3.443-5.373-3.443-8.919c0-3.547,1.171-6.474,3.512-8.851
		c2.376-2.376,5.304-3.581,8.85-3.581c3.892,0,7.094,1.446,9.539,4.304L358.56,297.426z"/>
	<path fill="#C93D8A" d="M368.583,292.674c2.342-2.376,5.235-3.581,8.713-3.581c3.443,0,6.335,1.205,8.712,3.581
		c2.375,2.376,3.581,5.337,3.581,8.851c0,3.546-1.171,6.509-3.547,8.885c-2.376,2.376-5.269,3.581-8.747,3.581
		c-3.479,0-6.371-1.205-8.713-3.581c-2.341-2.376-3.512-5.339-3.512-8.885C365.071,298.011,366.242,295.05,368.583,292.674z
		 M373.095,306.38c1.033,1.274,2.445,1.928,4.235,1.928c1.792,0,3.203-0.653,4.202-1.928c1.033-1.274,1.55-2.893,1.55-4.821
		c0-1.963-0.517-3.581-1.55-4.855c-0.999-1.275-2.41-1.929-4.202-1.929c-1.791,0-3.203,0.654-4.235,1.929
		c-1.033,1.274-1.55,2.893-1.55,4.855C371.545,303.487,372.062,305.105,373.095,306.38z"/>
	<path fill="#C93D8A" d="M407.329,313.99c-2.031,0-3.616-1.584-3.616-3.685c0-2.032,1.584-3.616,3.547-3.616
		c2.101,0,3.719,1.584,3.719,3.616C410.979,312.406,409.361,313.99,407.329,313.99z M404.092,305.174v-15.702h6.268v15.702H404.092z
		"/>
</g>
</svg>
