<?xml version="1.0" encoding="utf-8"?>
<!-- Generator: Adobe Illustrator 15.1.0, SVG Export Plug-In . SVG Version: 6.00 Build 0)  -->
<!DOCTYPE svg PUBLIC "-//W3C//DTD SVG 1.1//EN" "http://www.w3.org/Graphics/SVG/1.1/DTD/svg11.dtd">
<svg version="1.1" id="Calque_1" xmlns="http://www.w3.org/2000/svg" xmlns:xlink="http://www.w3.org/1999/xlink" x="0px" y="0px"
	 width="841.89px" height="595.28px" viewBox="0 0 841.89 595.28" enable-background="new 0 0 841.89 595.28" xml:space="preserve">
<g>
	<path fill-rule="evenodd" clip-rule="evenodd" d="M243.248,260.649c7.025-2.941,17.688-8.704,27.77-9.049
		c9.939-0.338,14.394,6.314,8.426,13.418c-6.208,7.391-18.577,10.886-28.082,14.978c8.566,0.9,20.361-0.334,28.395,2.184
		c3.806,1.192,9.99,4.609,9.051,9.984c-0.421,2.398-3.919,5.342-6.241,6.241c-8.413,3.257-23.229,3.452-33.388,2.806
		c5.011,2.088,10.711,4.192,15.913,6.868c4.863,2.496,10.544,5.559,13.728,9.047c6.162,6.749,2.373,14.018-9.048,13.107
		c-10.014-0.799-20.493-6.211-27.144-8.74c3.115,3.364,7.578,7.24,11.544,11.858c3.543,4.127,8.081,9.445,9.049,14.665
		c1.226,6.615-2.776,10.646-10.609,8.426c-1.921-0.546-4.752-2.247-6.554-3.432c-6.613-4.352-13.021-11.547-18.097-16.228
		c1.859,6.637,14.708,28.864,6.241,36.819c-6.021,5.652-12.894-3.367-15.603-7.485c-3.928-5.986-7.839-13.982-9.985-21.531
		c-1.007,5.959,0.357,12.626-0.624,19.033c-0.562,3.69-1.595,7.264-2.495,10.295c0,0,0,14.07,0,21.219c0,20.901,0,42.612,0,63.652
		c-3.97,0.519-10.068,0.519-14.042,0c0-20.767,0-40.8,0-61.778c0-6.71,0-20.283,0-20.283c-0.241-1.337-1.383-2.355-1.873-3.745
		c-2.971-8.418-2.354-19.505-2.183-29.329c-4.35,8.616-7.618,20.084-14.041,26.834c-3.258,3.422-11.366,8.049-14.354,1.246
		c-1.074-2.443-0.883-5.855-0.625-8.734c0.874-9.734,6.312-20.142,9.048-27.146c-3.269,2.908-6.967,7.382-11.543,11.233
		c-4.011,3.374-9.359,8.12-14.041,9.047c-15.028,2.981-10.134-11.371-5.929-17.474c4.595-6.664,12.021-13.409,16.848-18.409
		c-8.342,2.839-21.099,10.972-33.073,9.359c-7.281-0.978-7.854-8.848-3.431-13.728c2.954-3.266,8.227-6.079,12.793-8.423
		c4.871-2.508,10.123-4.592,14.975-6.244c-7.263-0.582-15.329-0.053-22.776-1.245c-5.67-0.908-13.989-3.636-14.353-9.049
		c-0.228-3.368,2.979-6.714,5.928-8.111c7.665-3.64,19.325-2.489,29.954-3.122c-7.89-4.134-20.804-7.627-26.521-14.666
		c-1.795-2.208-3.154-4.812-2.811-9.048c1.569-3.528,5.999-4.566,11.234-4.37c10.439,0.396,21.898,6.654,28.707,9.675
		c-3.473-3.029-7.557-7.297-11.546-11.857c-3.709-4.241-8.348-9.257-9.675-14.354c-1.888-7.27,2.038-12.346,9.675-10.296
		c5.11,1.37,10.496,5.997,14.667,9.671c4.485,3.958,8.714,8.134,12.167,11.859c-1.433-4.167-4.447-8.665-6.239-13.73
		c-2.565-7.245-7.124-24.796,1.56-26.523c4.399-0.875,8.698,2.914,10.606,5.305c5.737,7.177,9.49,17.489,12.795,26.836
		c1.028-7.766-0.663-20.933,2.183-29.644c1.852-5.66,8.825-13.433,14.042-6.242c5.464,7.53,5.228,22.097,5.306,34.95
		c3.26-8.124,6.384-17.861,11.545-24.341c1.636-2.052,5.303-5.759,7.799-6.24c7.398-1.424,8.862,5.367,8.426,11.858
		c-0.605,9.039-6.191,20.842-8.736,26.832c-0.058,0.254-0.314,0.312-0.312,0.625c4.349-4.088,11.479-12.435,18.409-16.849
		c5.01-3.189,14.312-7.398,17.474-0.312c0.294,9.312-4.777,15.459-9.359,20.595C250.573,253.447,246.712,257.217,243.248,260.649z
		 M205.494,231.007c-0.031-5.53-0.07-11.785-0.938-15.913c-0.241-1.164-1.431-3.323-2.183-5.617c-1.27-3.86-2.497-8.707-6.241-5.617
		c-1.657,1.369-3.646,9.237-4.056,11.234c-2.73,13.252,0.119,29.684,2.183,42.123c2.367-0.651,5.982-0.269,8.426,0
		C204.075,251.457,205.546,240.887,205.494,231.007z M170.86,212.909c-1.282-1.341-3.819-3.211-5.306-3.432
		c-4.697-0.69-2.84,11.321-2.184,14.041c3.277,13.635,11.75,27.902,17.785,37.757c2.705-1.143,4.889-2.806,8.423-3.122
		C185.495,242.663,180.091,222.571,170.86,212.909z M232.33,223.518c0.457-1.933,1.924-8.846,0.624-11.544
		c-1.815-3.756-6.676-0.024-8.427,1.87c-8.701,9.419-14.343,29.596-17.473,44.621c3.674,0.073,5.291,2.196,8.113,3.12
		C221.119,250.363,229.053,237.316,232.33,223.518z M153.072,236.625c-4.882-4.171-8.552-8.301-16.224-8.425
		c-4.147,3.927,2.667,12.265,5.306,15.602c7.646,9.673,19.769,21.011,29.329,25.896c1.838-2.112,4.072-3.833,5.929-5.926
		C171.36,253.565,162.143,244.368,153.072,236.625z M251.674,230.071c-3.685,1.859-7.739,5.05-10.919,7.8
		c-8.653,7.477-16.44,17.807-22.156,26.21c2.488,1.671,3.769,4.553,6.552,5.929c9.555-6.308,20.051-14.939,27.147-24.337
		c3.764-4.985,8.458-9.164,7.49-16.539C256.751,227.842,253.915,228.941,251.674,230.071z M148.707,262.834
		c-6.243-2.984-16.267-6.989-23.405-7.798c-9.677-1.107-9.777,4.808-4.992,9.046c5.35,4.733,13.242,7.938,19.972,10.606
		c7.783,3.09,16.234,5.429,25.273,7.181c0.794-2.951,1.976-5.512,3.12-8.114C163.203,270.245,156.17,266.404,148.707,262.834z
		 M272.579,265.644c2.119-1.538,7.103-5.033,5.928-8.115c-0.638-1.683-4.099-2.672-7.178-2.494
		c-8.067,0.464-16.415,4.327-23.71,7.798c-7.433,3.532-14.792,6.909-20.283,11.235c1.051,2.587,2.448,4.83,2.808,8.111
		C245.608,278.794,261.182,273.898,272.579,265.644z M223.28,307.455c6.29-9.566,5.918-24.264,0-33.386
		c-5.188-7.999-15.339-14.3-28.085-13.419c-12.422,0.857-21.602,9.145-25.273,18.411c-6.922,17.473,3.341,33.829,16.538,39.938
		C202.596,324.378,217.037,316.946,223.28,307.455z M124.68,283.74c-4.453,0.377-14.133,1.879-14.043,6.553
		c0.043,2.162,3.526,4.325,5.619,4.992c13.127,4.188,36.449,1.402,48.051-0.937c-0.52-3.403,0.092-5.708,0.312-9.049
		C152.92,283.355,137.95,282.619,124.68,283.74z M268.211,297.469c4.847-0.391,16.961-1.547,16.85-6.552
		c-0.044-2.033-3.503-4.173-5.929-4.993c-14.236-4.812-34.816-0.948-47.74,0.314c0.229,3.331,0.456,6.401-0.312,9.359
		C242.398,297.402,254.637,298.562,268.211,297.469z M149.328,303.086c-8.738,3.064-17.133,6.547-24.648,11.232
		c-2.578,1.605-9.374,5.953-7.801,9.67c1.663,3.931,14.247,1.17,17.162,0.314c12.344-3.617,24.829-11.313,34.321-17.162
		c-1.415-2.326-2.104-5.381-3.117-8.112C159.414,299.77,154.621,301.229,149.328,303.086z M266.339,312.447
		c-4.685-2.469-10.538-5.344-15.6-6.865c-1.036-0.311-2.351-0.014-3.435-0.311c-5.225-1.441-10.792-4.78-17.161-4.684
		c-0.893,2.954-2.322,5.377-3.432,8.113c5.386,3.02,11.198,6.991,17.785,9.984c5.981,2.72,14.059,6.114,20.594,7.49
		c3.383,0.71,10.526,1.743,13.106-1.247C277.699,319.2,271.456,315.143,266.339,312.447z M170.548,310.887
		c-9.053,6.35-20.119,16.104-27.771,25.274c-3.837,4.597-8.847,9.464-7.175,16.537c5.122,0.783,9.875-2.029,13.414-4.682
		c11.119-8.324,20.196-19.691,27.773-30.891C174.507,315.249,172.801,312.79,170.548,310.887z M255.105,339.906
		c-8.97-10.481-18.916-19.982-30.578-27.772c-0.206,0-0.415,0-0.624,0c0.088,0.914-6.191,5.248-6.241,6.241
		c-0.012,0.275,2.346,2.93,3.121,4.057c1.238,1.797,2.165,3.274,3.12,4.366c6.726,7.698,15.01,17.062,22.153,22.153
		c3.533,2.517,8.152,5.009,13.106,4.06C261.812,347.927,256.38,344.053,255.105,339.906z M180.844,319.936
		c-3.82,4.819-7.265,11.413-10.61,18.411c-4.747,9.928-9.712,20.619-7.175,33.071c3.229,0.829,5.813-1.596,7.489-3.431
		c4.575-5.019,7.92-12.807,10.921-20.283c3.076-7.663,5.896-16.201,6.864-24.648C185.625,322.224,183.186,321.13,180.844,319.936z
		 M232.954,364.244c-0.406-10.529-8.185-25.813-12.796-34.325c-1.667-3.079-4.799-8.783-6.863-9.362
		c-1.653,1.886-5.289,1.787-7.489,3.123c4.17,16.632,9.637,31.967,18.098,44.308C227.944,372.201,233.296,373.139,232.954,364.244z
		 M193.012,323.988c0,0.314,0,0.628,0,0.94c-1.449,7.383-2.324,16.809-2.184,25.585c0.088,5.438-0.121,11.104,0.938,15.913
		c0.488,2.225,2.874,11.201,5.927,11.236c3.47,0.033,5.384-9.163,5.929-12.173c2.363-13.006,0.54-28.952-1.872-41.188
		C199.202,324.829,195.177,324.818,193.012,323.988z M195.195,381.091c0,24.861,0,49.716,0,74.577
		c2.118-0.173,4.944,0.363,6.554-0.312c-0.207-24.859,0.419-50.55-0.312-74.89C200.609,380.687,197.636,381.446,195.195,381.091z"/>
	<path fill-rule="evenodd" clip-rule="evenodd" fill="#FFEF55" d="M186.46,318.999c-13.197-6.109-23.46-22.466-16.538-39.938
		c3.672-9.266,12.852-17.554,25.273-18.411c12.746-0.88,22.897,5.42,28.085,13.419c5.918,9.123,6.29,23.82,0,33.386
		C217.037,316.946,202.596,324.378,186.46,318.999z"/>
	<g>
		<path fill-rule="evenodd" clip-rule="evenodd" fill="#E6B6C8" d="M230.144,282.18c-0.359-3.281-1.757-5.523-2.808-8.111
			c5.491-4.326,12.851-7.703,20.283-11.235c7.295-3.471,15.643-7.334,23.71-7.798c3.079-0.179,6.54,0.811,7.178,2.494
			c1.175,3.082-3.809,6.577-5.928,8.115C261.182,273.898,245.608,278.794,230.144,282.18z"/>
		<path fill-rule="evenodd" clip-rule="evenodd" fill="#E6B6C8" d="M231.08,295.598c0.768-2.958,0.541-6.028,0.312-9.359
			c12.924-1.263,33.504-5.127,47.74-0.314c2.426,0.82,5.885,2.96,5.929,4.993c0.111,5.005-12.003,6.161-16.85,6.552
			C254.637,298.562,242.398,297.402,231.08,295.598z"/>
		<g>
			<path fill-rule="evenodd" clip-rule="evenodd" fill="#E6B6C8" d="M202.686,257.217c-2.443-0.269-6.059-0.651-8.426,0
				c-2.063-12.439-4.913-28.871-2.183-42.123c0.41-1.997,2.398-9.865,4.056-11.234c3.744-3.09,4.972,1.756,6.241,5.617
				c0.752,2.294,1.941,4.454,2.183,5.617c0.867,4.127,0.906,10.383,0.938,15.913C205.546,240.887,204.075,251.457,202.686,257.217z"
				/>
			<path fill-rule="evenodd" clip-rule="evenodd" fill="#E6B6C8" d="M189.579,258.154c-3.534,0.315-5.718,1.979-8.423,3.122
				c-6.035-9.855-14.508-24.122-17.785-37.757c-0.656-2.72-2.514-14.731,2.184-14.041c1.486,0.221,4.023,2.091,5.306,3.432
				C180.091,222.571,185.495,242.663,189.579,258.154z"/>
			<path fill-rule="evenodd" clip-rule="evenodd" fill="#E6B6C8" d="M215.168,261.584c-2.822-0.923-4.439-3.047-8.113-3.12
				c3.13-15.024,8.771-35.202,17.473-44.621c1.751-1.894,6.611-5.625,8.427-1.87c1.3,2.698-0.167,9.611-0.624,11.544
				C229.053,237.316,221.119,250.363,215.168,261.584z"/>
			<path fill-rule="evenodd" clip-rule="evenodd" fill="#E6B6C8" d="M177.412,263.772c-1.856,2.093-4.091,3.813-5.929,5.926
				c-9.561-4.885-21.684-16.224-29.329-25.896c-2.639-3.336-9.453-11.674-5.306-15.602c7.672,0.124,11.342,4.254,16.224,8.425
				C162.143,244.368,171.36,253.565,177.412,263.772z"/>
			<path fill-rule="evenodd" clip-rule="evenodd" fill="#E6B6C8" d="M259.788,229.135c0.968,7.375-3.727,11.554-7.49,16.539
				c-7.097,9.398-17.593,18.029-27.147,24.337c-2.783-1.376-4.063-4.258-6.552-5.929c5.716-8.404,13.503-18.734,22.156-26.21
				c3.18-2.75,7.234-5.941,10.919-7.8C253.915,228.941,256.751,227.842,259.788,229.135z"/>
			<path fill-rule="evenodd" clip-rule="evenodd" fill="#E6B6C8" d="M168.675,273.755c-1.145,2.603-2.326,5.163-3.12,8.114
				c-9.039-1.752-17.49-4.091-25.273-7.181c-6.729-2.669-14.622-5.874-19.972-10.606c-4.785-4.238-4.685-10.153,4.992-9.046
				c7.139,0.809,17.162,4.814,23.405,7.798C156.17,266.404,163.203,270.245,168.675,273.755z"/>
			<path fill-rule="evenodd" clip-rule="evenodd" fill="#E6B6C8" d="M164.618,285.3c-0.22,3.341-0.831,5.646-0.312,9.049
				c-11.602,2.339-34.924,5.125-48.051,0.937c-2.093-0.667-5.576-2.83-5.619-4.992c-0.09-4.674,9.59-6.176,14.043-6.553
				C137.95,282.619,152.92,283.355,164.618,285.3z"/>
			<path fill-rule="evenodd" clip-rule="evenodd" fill="#E6B6C8" d="M165.245,299.028c1.014,2.731,1.702,5.786,3.117,8.112
				c-9.492,5.849-21.978,13.545-34.321,17.162c-2.915,0.855-15.499,3.616-17.162-0.314c-1.573-3.717,5.223-8.064,7.801-9.67
				c7.516-4.686,15.91-8.168,24.648-11.232C154.621,301.229,159.414,299.77,165.245,299.028z"/>
			<path fill-rule="evenodd" clip-rule="evenodd" fill="#E6B6C8" d="M278.197,324.929c-2.58,2.99-9.724,1.957-13.106,1.247
				c-6.535-1.376-14.612-4.771-20.594-7.49c-6.587-2.993-12.399-6.965-17.785-9.984c1.109-2.736,2.539-5.159,3.432-8.113
				c6.369-0.097,11.937,3.242,17.161,4.684c1.084,0.297,2.398,0,3.435,0.311c5.062,1.521,10.915,4.396,15.6,6.865
				C271.456,315.143,277.699,319.2,278.197,324.929z"/>
			<path fill-rule="evenodd" clip-rule="evenodd" fill="#E6B6C8" d="M176.789,317.126c-7.577,11.199-16.654,22.566-27.773,30.891
				c-3.539,2.652-8.292,5.465-13.414,4.682c-1.672-7.073,3.338-11.94,7.175-16.537c7.652-9.17,18.719-18.925,27.771-25.274
				C172.801,312.79,174.507,315.249,176.789,317.126z"/>
			<path fill-rule="evenodd" clip-rule="evenodd" fill="#E6B6C8" d="M259.163,353.011c-4.954,0.949-9.573-1.543-13.106-4.06
				c-7.144-5.091-15.428-14.455-22.153-22.153c-0.955-1.092-1.882-2.569-3.12-4.366c-0.775-1.127-3.133-3.781-3.121-4.057
				c0.05-0.993,6.329-5.327,6.241-6.241c0.209,0,0.418,0,0.624,0c11.662,7.79,21.608,17.291,30.578,27.772
				C256.38,344.053,261.812,347.927,259.163,353.011z"/>
			<path fill-rule="evenodd" clip-rule="evenodd" fill="#E6B6C8" d="M188.333,323.056c-0.969,8.447-3.788,16.985-6.864,24.648
				c-3.001,7.477-6.346,15.265-10.921,20.283c-1.676,1.835-4.26,4.26-7.489,3.431c-2.537-12.452,2.428-23.144,7.175-33.071
				c3.346-6.998,6.79-13.592,10.61-18.411C183.186,321.13,185.625,322.224,188.333,323.056z"/>
			<path fill-rule="evenodd" clip-rule="evenodd" fill="#E6B6C8" d="M223.903,367.987c-8.461-12.341-13.928-27.676-18.098-44.308
				c2.2-1.336,5.836-1.237,7.489-3.123c2.064,0.579,5.196,6.283,6.863,9.362c4.611,8.512,12.39,23.796,12.796,34.325
				C233.296,373.139,227.944,372.201,223.903,367.987z"/>
			<path fill-rule="evenodd" clip-rule="evenodd" fill="#E6B6C8" d="M201.749,324.303c2.412,12.235,4.235,28.182,1.872,41.188
				c-0.545,3.01-2.459,12.206-5.929,12.173c-3.053-0.035-5.438-9.012-5.927-11.236c-1.059-4.81-0.85-10.476-0.938-15.913
				c-0.141-8.776,0.734-18.202,2.184-25.585c0-0.312,0-0.626,0-0.94C195.177,324.818,199.202,324.829,201.749,324.303z"/>
		</g>
	</g>
	<path fill-rule="evenodd" clip-rule="evenodd" fill="#386539" d="M201.437,380.467c0.731,24.34,0.105,50.03,0.312,74.89
		c-1.609,0.675-4.436,0.139-6.554,0.312c0-24.861,0-49.716,0-74.577C197.636,381.446,200.609,380.687,201.437,380.467z"/>
	<path fill-rule="evenodd" clip-rule="evenodd" d="M256.741,379.578c-6.004,0.037-13.062,1.748-18.532,4.008
		c-1.406,0.581-21.488,11.201-26.711,15.13c-5.841,4.395-12.149,8.671-14.714,14.94c-3.364,8.226,4.885,11.025,10.915,9.734
		c1.609-0.343,4.142-1.287,5.953-1.996c8.836-3.478,17.621-10.085,26.314-16.769c8.541-6.563,16.523-15.145,19.593-24.961
		C258.1,379.272,257.476,379.571,256.741,379.578z M250.181,390.312c-2.796,3.329-6.85,6.975-10.568,10.164
		c-3.66,3.146-7.437,6.285-11.329,8.805c-8.024,5.186-17.447,11.401-28.18,9.886c-0.892-3.306,1.155-6.339,3.119-8.699
		c4.567-5.479,11.833-10.402,19.084-14.638c10.015-5.841,19.955-10.349,31.351-12.275
		C253.602,385.437,251.484,388.759,250.181,390.312z"/>
	<path fill-rule="evenodd" clip-rule="evenodd" fill="#386539" d="M253.657,383.555c-0.056,1.882-2.173,5.204-3.477,6.758
		c-2.796,3.329-6.85,6.975-10.568,10.164c-3.66,3.146-7.437,6.285-11.329,8.805c-8.024,5.186-17.447,11.401-28.18,9.886
		c-0.892-3.306,1.155-6.339,3.119-8.699c4.567-5.479,11.833-10.402,19.084-14.638C232.321,389.989,242.262,385.481,253.657,383.555z
		"/>
	<rect x="195.195" y="402.3" fill-rule="evenodd" clip-rule="evenodd" fill="#386539" width="6.558" height="24.494"/>
</g>
<g>
	<path fill-rule="evenodd" clip-rule="evenodd" d="M662.18,284.849c7.025-2.941,17.688-8.704,27.77-9.049
		c9.939-0.338,14.394,6.314,8.426,13.418c-6.208,7.391-18.577,10.886-28.082,14.978c8.566,0.9,20.361-0.334,28.395,2.184
		c3.806,1.192,9.99,4.609,9.051,9.984c-0.421,2.398-3.919,5.342-6.241,6.241c-8.413,3.257-23.229,3.452-33.388,2.806
		c5.011,2.088,10.711,4.192,15.913,6.868c4.863,2.496,10.544,5.559,13.728,9.047c6.162,6.749,2.373,14.018-9.048,13.107
		c-10.014-0.799-20.493-6.211-27.144-8.74c3.115,3.364,7.578,7.24,11.544,11.858c3.543,4.127,8.081,9.445,9.049,14.665
		c1.226,6.615-2.776,10.646-10.609,8.426c-1.921-0.546-4.752-2.247-6.554-3.432c-6.613-4.352-13.021-11.547-18.097-16.228
		c1.859,6.637,14.708,28.864,6.241,36.819c-6.021,5.652-12.894-3.367-15.603-7.485c-3.928-5.986-7.839-13.982-9.985-21.531
		c-1.007,5.959,0.357,12.626-0.624,19.033c-0.562,3.69-1.595,7.264-2.495,10.295c0,0,0,14.07,0,21.219c0,20.901,0,42.612,0,63.652
		c-3.97,0.519-10.068,0.519-14.042,0c0-20.767,0-40.8,0-61.778c0-6.71,0-20.283,0-20.283c-0.241-1.337-1.383-2.355-1.873-3.745
		c-2.971-8.418-2.354-19.505-2.183-29.329c-4.35,8.616-7.618,20.084-14.041,26.834c-3.258,3.422-11.366,8.049-14.354,1.246
		c-1.074-2.443-0.883-5.855-0.625-8.734c0.874-9.734,6.312-20.142,9.048-27.146c-3.269,2.908-6.967,7.382-11.543,11.233
		c-4.011,3.374-9.359,8.12-14.041,9.047c-15.028,2.981-10.134-11.371-5.929-17.474c4.595-6.664,12.021-13.409,16.848-18.409
		c-8.342,2.839-21.099,10.972-33.073,9.359c-7.281-0.978-7.854-8.848-3.431-13.728c2.954-3.266,8.227-6.079,12.793-8.423
		c4.871-2.508,10.123-4.592,14.975-6.244c-7.263-0.582-15.329-0.053-22.776-1.245c-5.67-0.908-13.989-3.636-14.353-9.049
		c-0.228-3.368,2.979-6.714,5.928-8.111c7.665-3.64,19.325-2.489,29.954-3.122c-7.89-4.134-20.804-7.627-26.521-14.666
		c-1.795-2.208-3.154-4.812-2.811-9.048c1.569-3.528,5.999-4.566,11.234-4.37c10.439,0.396,21.898,6.654,28.707,9.675
		c-3.473-3.029-7.557-7.297-11.546-11.857c-3.709-4.241-8.348-9.257-9.675-14.354c-1.888-7.27,2.038-12.346,9.675-10.296
		c5.11,1.37,10.496,5.997,14.667,9.671c4.485,3.958,8.714,8.134,12.167,11.859c-1.433-4.167-4.447-8.665-6.239-13.73
		c-2.565-7.245-7.124-24.796,1.56-26.523c4.399-0.875,8.698,2.914,10.606,5.305c5.737,7.177,9.49,17.489,12.795,26.836
		c1.028-7.766-0.663-20.933,2.183-29.644c1.852-5.66,8.825-13.433,14.042-6.242c5.464,7.53,5.228,22.097,5.306,34.95
		c3.26-8.124,6.384-17.861,11.545-24.341c1.636-2.052,5.303-5.759,7.799-6.24c7.398-1.424,8.862,5.367,8.426,11.858
		c-0.605,9.039-6.191,20.842-8.736,26.832c-0.058,0.254-0.314,0.312-0.312,0.625c4.349-4.088,11.479-12.435,18.409-16.849
		c5.01-3.189,14.312-7.398,17.474-0.312c0.294,9.312-4.777,15.459-9.359,20.595C669.505,277.646,665.644,281.417,662.18,284.849z
		 M624.426,255.206c-0.031-5.53-0.07-11.785-0.938-15.913c-0.241-1.164-1.431-3.323-2.183-5.617c-1.27-3.86-2.497-8.707-6.241-5.617
		c-1.657,1.369-3.646,9.237-4.056,11.234c-2.73,13.252,0.119,29.684,2.183,42.123c2.367-0.651,5.982-0.269,8.426,0
		C623.007,275.656,624.478,265.086,624.426,255.206z M589.792,237.108c-1.282-1.341-3.819-3.211-5.306-3.432
		c-4.697-0.69-2.84,11.321-2.184,14.041c3.277,13.635,11.75,27.902,17.785,37.757c2.705-1.143,4.889-2.806,8.423-3.122
		C604.427,266.862,599.022,246.77,589.792,237.108z M651.262,247.717c0.457-1.933,1.924-8.846,0.624-11.544
		c-1.815-3.756-6.676-0.024-8.427,1.87c-8.701,9.419-14.343,29.596-17.473,44.621c3.674,0.073,5.291,2.196,8.113,3.12
		C640.051,274.562,647.984,261.515,651.262,247.717z M572.004,260.824c-4.882-4.171-8.552-8.301-16.224-8.425
		c-4.147,3.927,2.667,12.265,5.306,15.602c7.646,9.673,19.769,21.011,29.329,25.896c1.838-2.112,4.072-3.833,5.929-5.926
		C590.292,277.765,581.074,268.567,572.004,260.824z M670.605,254.27c-3.685,1.859-7.739,5.05-10.919,7.8
		c-8.653,7.477-16.44,17.807-22.156,26.21c2.488,1.671,3.769,4.553,6.552,5.929c9.555-6.308,20.051-14.939,27.147-24.337
		c3.764-4.985,8.458-9.164,7.49-16.539C675.683,252.042,672.847,253.141,670.605,254.27z M567.639,287.033
		c-6.243-2.984-16.267-6.989-23.405-7.798c-9.677-1.107-9.777,4.808-4.992,9.046c5.35,4.733,13.242,7.938,19.972,10.606
		c7.783,3.09,16.234,5.429,25.273,7.181c0.794-2.951,1.976-5.512,3.12-8.114C582.135,294.444,575.102,290.603,567.639,287.033z
		 M691.511,289.843c2.119-1.538,7.103-5.033,5.928-8.115c-0.638-1.683-4.099-2.672-7.178-2.494
		c-8.067,0.464-16.415,4.327-23.71,7.798c-7.433,3.532-14.792,6.909-20.283,11.235c1.051,2.587,2.448,4.83,2.808,8.111
		C664.54,302.993,680.113,298.098,691.511,289.843z M642.212,331.654c6.29-9.566,5.918-24.264,0-33.386
		c-5.188-7.999-15.339-14.3-28.085-13.419c-12.422,0.857-21.602,9.145-25.273,18.411c-6.922,17.473,3.341,33.829,16.538,39.938
		C621.527,348.577,635.969,341.146,642.212,331.654z M543.611,307.939c-4.453,0.377-14.133,1.879-14.043,6.553
		c0.043,2.162,3.526,4.325,5.619,4.992c13.127,4.188,36.449,1.402,48.051-0.937c-0.52-3.403,0.092-5.708,0.312-9.049
		C571.852,307.555,556.882,306.818,543.611,307.939z M687.143,321.668c4.847-0.391,16.961-1.547,16.85-6.552
		c-0.044-2.033-3.503-4.173-5.929-4.993c-14.236-4.812-34.816-0.948-47.74,0.314c0.229,3.331,0.456,6.401-0.312,9.359
		C661.33,321.602,673.568,322.762,687.143,321.668z M568.26,327.285c-8.738,3.064-17.133,6.547-24.648,11.232
		c-2.578,1.605-9.374,5.953-7.801,9.67c1.663,3.931,14.247,1.17,17.162,0.314c12.344-3.617,24.829-11.313,34.321-17.162
		c-1.415-2.326-2.104-5.381-3.117-8.112C578.346,323.969,573.553,325.428,568.26,327.285z M685.271,336.646
		c-4.685-2.469-10.538-5.344-15.6-6.865c-1.036-0.311-2.351-0.014-3.435-0.311c-5.225-1.441-10.792-4.78-17.161-4.684
		c-0.893,2.954-2.322,5.377-3.432,8.113c5.386,3.02,11.198,6.991,17.785,9.984c5.981,2.72,14.059,6.114,20.594,7.49
		c3.383,0.71,10.526,1.743,13.106-1.247C696.631,343.399,690.388,339.342,685.271,336.646z M589.479,335.086
		c-9.053,6.35-20.119,16.104-27.771,25.274c-3.837,4.597-8.847,9.464-7.175,16.537c5.122,0.783,9.875-2.029,13.414-4.682
		c11.119-8.324,20.196-19.691,27.773-30.891C593.438,339.448,591.732,336.989,589.479,335.086z M674.037,364.105
		c-8.97-10.481-18.916-19.982-30.578-27.772c-0.206,0-0.415,0-0.624,0c0.088,0.914-6.191,5.248-6.241,6.241
		c-0.012,0.275,2.346,2.93,3.121,4.057c1.238,1.797,2.165,3.274,3.12,4.366c6.726,7.698,15.01,17.062,22.153,22.153
		c3.533,2.517,8.152,5.009,13.106,4.06C680.743,372.126,675.312,368.252,674.037,364.105z M599.775,344.135
		c-3.82,4.819-7.265,11.413-10.61,18.411c-4.747,9.928-9.712,20.619-7.175,33.071c3.229,0.829,5.813-1.596,7.489-3.431
		c4.575-5.019,7.92-12.807,10.921-20.283c3.076-7.663,5.896-16.201,6.864-24.648C604.557,346.423,602.117,345.329,599.775,344.135z
		 M651.886,388.443c-0.406-10.529-8.185-25.813-12.796-34.325c-1.667-3.079-4.799-8.783-6.863-9.362
		c-1.653,1.886-5.289,1.787-7.489,3.123c4.17,16.632,9.637,31.967,18.098,44.308C646.876,396.4,652.228,397.338,651.886,388.443z
		 M611.943,348.188c0,0.314,0,0.628,0,0.94c-1.449,7.383-2.324,16.809-2.184,25.585c0.088,5.438-0.121,11.104,0.938,15.913
		c0.488,2.225,2.874,11.201,5.927,11.236c3.47,0.033,5.384-9.163,5.929-12.173c2.363-13.006,0.54-28.952-1.872-41.188
		C618.134,349.028,614.108,349.018,611.943,348.188z M614.127,405.29c0,24.861,0,49.716,0,74.577
		c2.118-0.173,4.944,0.363,6.554-0.312c-0.207-24.859,0.419-50.55-0.312-74.89C619.541,404.886,616.567,405.646,614.127,405.29z"/>
	<path fill-rule="evenodd" clip-rule="evenodd" fill="#FFEF55" d="M605.392,343.198c-13.197-6.109-23.46-22.466-16.538-39.938
		c3.672-9.266,12.852-17.554,25.273-18.411c12.746-0.88,22.897,5.42,28.085,13.419c5.918,9.123,6.29,23.82,0,33.386
		C635.969,341.146,621.527,348.577,605.392,343.198z"/>
	<g>
		<path fill-rule="evenodd" clip-rule="evenodd" fill="#E6B6C8" d="M649.075,306.379c-0.359-3.281-1.757-5.523-2.808-8.111
			c5.491-4.326,12.851-7.703,20.283-11.235c7.295-3.471,15.643-7.334,23.71-7.798c3.079-0.179,6.54,0.811,7.178,2.494
			c1.175,3.082-3.809,6.577-5.928,8.115C680.113,298.098,664.54,302.993,649.075,306.379z"/>
		<path fill-rule="evenodd" clip-rule="evenodd" fill="#E6B6C8" d="M650.012,319.797c0.768-2.958,0.541-6.028,0.312-9.359
			c12.924-1.263,33.504-5.127,47.74-0.314c2.426,0.82,5.885,2.96,5.929,4.993c0.111,5.005-12.003,6.161-16.85,6.552
			C673.568,322.762,661.33,321.602,650.012,319.797z"/>
		<g>
			<path fill-rule="evenodd" clip-rule="evenodd" fill="#E6B6C8" d="M621.617,281.417c-2.443-0.269-6.059-0.651-8.426,0
				c-2.063-12.439-4.913-28.871-2.183-42.123c0.41-1.997,2.398-9.865,4.056-11.234c3.744-3.09,4.972,1.756,6.241,5.617
				c0.752,2.294,1.941,4.454,2.183,5.617c0.867,4.127,0.906,10.383,0.938,15.913C624.478,265.086,623.007,275.656,621.617,281.417z"
				/>
			<path fill-rule="evenodd" clip-rule="evenodd" fill="#E6B6C8" d="M608.511,282.353c-3.534,0.315-5.718,1.979-8.423,3.122
				c-6.035-9.855-14.508-24.122-17.785-37.757c-0.656-2.72-2.514-14.731,2.184-14.041c1.486,0.221,4.023,2.091,5.306,3.432
				C599.022,246.77,604.427,266.862,608.511,282.353z"/>
			<path fill-rule="evenodd" clip-rule="evenodd" fill="#E6B6C8" d="M634.1,285.783c-2.822-0.923-4.439-3.047-8.113-3.12
				c3.13-15.024,8.771-35.202,17.473-44.621c1.751-1.894,6.611-5.625,8.427-1.87c1.3,2.698-0.167,9.611-0.624,11.544
				C647.984,261.515,640.051,274.562,634.1,285.783z"/>
			<path fill-rule="evenodd" clip-rule="evenodd" fill="#E6B6C8" d="M596.344,287.972c-1.856,2.093-4.091,3.813-5.929,5.926
				c-9.561-4.885-21.684-16.224-29.329-25.896c-2.639-3.336-9.453-11.674-5.306-15.602c7.672,0.124,11.342,4.254,16.224,8.425
				C581.074,268.567,590.292,277.765,596.344,287.972z"/>
			<path fill-rule="evenodd" clip-rule="evenodd" fill="#E6B6C8" d="M678.72,253.334c0.968,7.375-3.727,11.554-7.49,16.539
				c-7.097,9.398-17.593,18.029-27.147,24.337c-2.783-1.376-4.063-4.258-6.552-5.929c5.716-8.404,13.503-18.734,22.156-26.21
				c3.18-2.75,7.234-5.941,10.919-7.8C672.847,253.141,675.683,252.042,678.72,253.334z"/>
			<path fill-rule="evenodd" clip-rule="evenodd" fill="#E6B6C8" d="M587.606,297.954c-1.145,2.603-2.326,5.163-3.12,8.114
				c-9.039-1.752-17.49-4.091-25.273-7.181c-6.729-2.669-14.622-5.874-19.972-10.606c-4.785-4.238-4.685-10.153,4.992-9.046
				c7.139,0.809,17.162,4.814,23.405,7.798C575.102,290.603,582.135,294.444,587.606,297.954z"/>
			<path fill-rule="evenodd" clip-rule="evenodd" fill="#E6B6C8" d="M583.55,309.499c-0.22,3.341-0.831,5.646-0.312,9.049
				c-11.602,2.339-34.924,5.125-48.051,0.937c-2.093-0.667-5.576-2.83-5.619-4.992c-0.09-4.674,9.59-6.176,14.043-6.553
				C556.882,306.818,571.852,307.555,583.55,309.499z"/>
			<path fill-rule="evenodd" clip-rule="evenodd" fill="#E6B6C8" d="M584.177,323.228c1.014,2.731,1.702,5.786,3.117,8.112
				c-9.492,5.849-21.978,13.545-34.321,17.162c-2.915,0.855-15.499,3.616-17.162-0.314c-1.573-3.717,5.223-8.064,7.801-9.67
				c7.516-4.686,15.91-8.168,24.648-11.232C573.553,325.428,578.346,323.969,584.177,323.228z"/>
			<path fill-rule="evenodd" clip-rule="evenodd" fill="#E6B6C8" d="M697.129,349.128c-2.58,2.99-9.724,1.957-13.106,1.247
				c-6.535-1.376-14.612-4.771-20.594-7.49c-6.587-2.993-12.399-6.965-17.785-9.984c1.109-2.736,2.539-5.159,3.432-8.113
				c6.369-0.097,11.937,3.242,17.161,4.684c1.084,0.297,2.398,0,3.435,0.311c5.062,1.521,10.915,4.396,15.6,6.865
				C690.388,339.342,696.631,343.399,697.129,349.128z"/>
			<path fill-rule="evenodd" clip-rule="evenodd" fill="#E6B6C8" d="M595.721,341.325c-7.577,11.199-16.654,22.566-27.773,30.891
				c-3.539,2.652-8.292,5.465-13.414,4.682c-1.672-7.073,3.338-11.94,7.175-16.537c7.652-9.17,18.719-18.925,27.771-25.274
				C591.732,336.989,593.438,339.448,595.721,341.325z"/>
			<path fill-rule="evenodd" clip-rule="evenodd" fill="#E6B6C8" d="M678.095,377.21c-4.954,0.949-9.573-1.543-13.106-4.06
				c-7.144-5.091-15.428-14.455-22.153-22.153c-0.955-1.092-1.882-2.569-3.12-4.366c-0.775-1.127-3.133-3.781-3.121-4.057
				c0.05-0.993,6.329-5.327,6.241-6.241c0.209,0,0.418,0,0.624,0c11.662,7.79,21.608,17.291,30.578,27.772
				C675.312,368.252,680.743,372.126,678.095,377.21z"/>
			<path fill-rule="evenodd" clip-rule="evenodd" fill="#E6B6C8" d="M607.265,347.255c-0.969,8.447-3.788,16.985-6.864,24.648
				c-3.001,7.477-6.346,15.265-10.921,20.283c-1.676,1.835-4.26,4.26-7.489,3.431c-2.537-12.452,2.428-23.144,7.175-33.071
				c3.346-6.998,6.79-13.592,10.61-18.411C602.117,345.329,604.557,346.423,607.265,347.255z"/>
			<path fill-rule="evenodd" clip-rule="evenodd" fill="#E6B6C8" d="M642.835,392.187c-8.461-12.341-13.928-27.676-18.098-44.308
				c2.2-1.336,5.836-1.237,7.489-3.123c2.064,0.579,5.196,6.283,6.863,9.362c4.611,8.512,12.39,23.796,12.796,34.325
				C652.228,397.338,646.876,396.4,642.835,392.187z"/>
			<path fill-rule="evenodd" clip-rule="evenodd" fill="#E6B6C8" d="M620.681,348.502c2.412,12.235,4.235,28.182,1.872,41.188
				c-0.545,3.01-2.459,12.206-5.929,12.173c-3.053-0.035-5.438-9.012-5.927-11.236c-1.059-4.81-0.85-10.476-0.938-15.913
				c-0.141-8.776,0.734-18.202,2.184-25.585c0-0.312,0-0.626,0-0.94C614.108,349.018,618.134,349.028,620.681,348.502z"/>
		</g>
	</g>
	<path fill-rule="evenodd" clip-rule="evenodd" fill="#386539" d="M620.368,404.666c0.731,24.34,0.105,50.03,0.312,74.89
		c-1.609,0.675-4.436,0.139-6.554,0.312c0-24.861,0-49.716,0-74.577C616.567,405.646,619.541,404.886,620.368,404.666z"/>
	<path fill-rule="evenodd" clip-rule="evenodd" d="M675.673,403.777c-6.004,0.037-13.062,1.748-18.532,4.008
		c-1.406,0.581-21.488,11.201-26.711,15.13c-5.841,4.395-12.149,8.671-14.714,14.94c-3.364,8.226,4.885,11.025,10.915,9.734
		c1.609-0.343,4.142-1.287,5.953-1.996c8.836-3.478,17.621-10.085,26.314-16.769c8.541-6.563,16.523-15.145,19.593-24.961
		C677.031,403.472,676.407,403.771,675.673,403.777z M669.112,414.512c-2.796,3.329-6.85,6.975-10.568,10.164
		c-3.66,3.146-7.437,6.285-11.329,8.805c-8.024,5.186-17.447,11.401-28.18,9.886c-0.892-3.306,1.155-6.339,3.119-8.699
		c4.567-5.479,11.833-10.402,19.084-14.638c10.015-5.841,19.955-10.349,31.351-12.275
		C672.533,409.636,670.416,412.958,669.112,414.512z"/>
	<path fill-rule="evenodd" clip-rule="evenodd" fill="#386539" d="M672.589,407.754c-0.056,1.882-2.173,5.204-3.477,6.758
		c-2.796,3.329-6.85,6.975-10.568,10.164c-3.66,3.146-7.437,6.285-11.329,8.805c-8.024,5.186-17.447,11.401-28.18,9.886
		c-0.892-3.306,1.155-6.339,3.119-8.699c4.567-5.479,11.833-10.402,19.084-14.638C651.253,414.188,661.193,409.681,672.589,407.754z
		"/>
	<rect x="614.127" y="426.499" fill-rule="evenodd" clip-rule="evenodd" fill="#386539" width="6.558" height="24.494"/>
</g>
<g>
	<path fill-rule="evenodd" clip-rule="evenodd" d="M563.645,152.35c13.043-5.463,32.839-16.161,51.557-16.803
		c18.451-0.628,26.724,11.722,15.644,24.911c-11.526,13.722-34.49,20.211-52.138,27.808c15.903,1.67,37.802-0.621,52.716,4.053
		c7.065,2.216,18.549,8.561,16.803,18.538c-0.782,4.45-7.274,9.917-11.586,11.586c-15.62,6.046-43.124,6.408-61.987,5.211
		c9.305,3.875,19.886,7.781,29.544,12.749c9.027,4.637,19.576,10.321,25.486,16.798c11.441,12.526,4.404,26.023-16.798,24.333
		c-18.591-1.483-38.048-11.53-50.394-16.226c5.785,6.246,14.068,13.443,21.433,22.016c6.578,7.663,15.003,17.536,16.8,27.226
		c2.273,12.278-5.154,19.766-19.698,15.644c-3.567-1.013-8.822-4.174-12.167-6.373c-12.278-8.077-24.175-21.435-33.598-30.124
		c3.452,12.317,27.306,53.587,11.587,68.357c-11.177,10.493-23.938-6.254-28.966-13.901c-7.294-11.111-14.554-25.956-18.539-39.971
		c-1.869,11.061,0.665,23.441-1.159,35.334c-1.044,6.853-2.962,13.485-4.632,19.113c0,0,0,26.121,0,39.394
		c0,38.806,0,79.115,0,118.176c-7.372,0.963-18.693,0.963-26.068,0c0-38.555,0-75.749,0-114.696c0-12.457,0-37.659,0-37.659
		c-0.45-2.479-2.568-4.372-3.478-6.949c-5.519-15.627-4.372-36.215-4.054-54.453c-8.076,16-14.143,37.287-26.069,49.821
		c-6.047,6.352-21.103,14.942-26.646,2.313c-1.993-4.538-1.639-10.874-1.16-16.218c1.623-18.072,11.72-37.395,16.798-50.399
		c-6.069,5.402-12.936,13.706-21.431,20.854c-7.446,6.267-17.378,15.079-26.069,16.8c-27.9,5.533-18.814-21.113-11.007-32.443
		c8.531-12.372,22.32-24.894,31.28-34.176c-15.488,5.271-39.174,20.369-61.404,17.376c-13.518-1.816-14.579-16.426-6.37-25.487
		c5.485-6.062,15.273-11.284,23.752-15.638c9.045-4.656,18.795-8.525,27.801-11.59c-13.484-1.083-28.458-0.1-42.286-2.312
		c-10.525-1.687-25.972-6.75-26.646-16.802c-0.423-6.252,5.529-12.463,11.005-15.059c14.23-6.756,35.879-4.618,55.612-5.793
		c-14.648-7.675-38.625-14.163-49.238-27.23c-3.332-4.1-5.855-8.933-5.216-16.797c2.911-6.549,11.137-8.479,20.856-8.114
		c19.383,0.736,40.657,12.354,53.295,17.963c-6.445-5.626-14.028-13.549-21.435-22.015c-6.885-7.874-15.497-17.186-17.961-26.649
		c-3.505-13.496,3.785-22.919,17.961-19.115c9.488,2.543,19.487,11.133,27.229,17.955c8.329,7.349,16.179,15.1,22.592,22.016
		c-2.661-7.737-8.259-16.086-11.584-25.49c-4.764-13.45-13.227-46.036,2.895-49.242c8.167-1.623,16.149,5.41,19.691,9.851
		c10.651,13.324,17.62,32.468,23.755,49.821c1.909-14.416-1.231-38.862,4.054-55.035c3.436-10.507,16.383-24.938,26.068-11.587
		c10.144,13.979,9.706,41.025,9.851,64.885c6.053-15.081,11.85-33.159,21.433-45.189c3.04-3.811,9.847-10.691,14.48-11.586
		c13.734-2.644,16.452,9.965,15.644,22.016c-1.126,16.783-11.495,38.694-16.221,49.816c-0.109,0.471-0.583,0.578-0.58,1.161
		c8.074-7.591,21.312-23.087,34.178-31.283c9.301-5.921,26.572-13.735,32.44-0.578c0.546,17.289-8.869,28.701-17.375,38.234
		C577.245,138.976,570.075,145.977,563.645,152.35z M493.552,97.314c-0.057-10.267-0.131-21.88-1.741-29.542
		c-0.449-2.161-2.655-6.169-4.052-10.43c-2.356-7.167-4.636-16.164-11.586-10.427c-3.08,2.542-6.768,17.15-7.533,20.857
		c-5.067,24.604,0.223,55.109,4.055,78.205c4.396-1.209,11.107-0.501,15.644,0C490.919,135.279,493.647,115.659,493.552,97.314z
		 M429.251,63.715c-2.381-2.49-7.091-5.961-9.851-6.373c-8.721-1.28-5.271,21.019-4.052,26.069
		c6.083,25.314,21.813,51.801,33.019,70.098c5.022-2.123,9.076-5.21,15.639-5.794C456.423,118.955,446.389,81.653,429.251,63.715z
		 M543.373,83.412c0.849-3.589,3.573-16.423,1.159-21.433c-3.369-6.973-12.394-0.044-15.644,3.471
		c-16.155,17.487-26.627,54.946-32.44,82.84c6.82,0.137,9.823,4.078,15.062,5.794C522.56,133.25,537.29,109.028,543.373,83.412z
		 M396.227,107.744c-9.062-7.742-15.877-15.41-30.12-15.641c-7.701,7.292,4.952,22.771,9.85,28.965
		c14.194,17.958,36.703,39.008,54.452,48.079c3.413-3.921,7.56-7.118,11.006-11.003C430.181,139.197,413.067,122.12,396.227,107.744
		z M579.287,95.577c-6.841,3.452-14.368,9.376-20.271,14.481c-16.065,13.881-30.522,33.059-41.134,48.663
		c4.618,3.102,6.996,8.454,12.163,11.008c17.737-11.71,37.225-27.735,50.4-45.185c6.988-9.255,15.703-17.015,13.905-30.705
		C588.714,91.439,583.447,93.479,579.287,95.577z M388.123,156.405c-11.591-5.542-30.202-12.977-43.455-14.482
		c-17.964-2.051-18.152,8.929-9.267,16.797c9.933,8.787,24.585,14.736,37.078,19.69c14.451,5.737,30.141,10.08,46.921,13.333
		c1.476-5.482,3.669-10.235,5.795-15.065C415.034,170.162,401.979,163.031,388.123,156.405z M618.102,161.621
		c3.934-2.855,13.184-9.344,11.003-15.065c-1.185-3.123-7.61-4.963-13.325-4.632c-14.979,0.863-30.476,8.037-44.021,14.482
		c-13.799,6.556-27.462,12.826-37.655,20.855c1.951,4.805,4.546,8.967,5.213,15.059
		C568.026,186.035,596.939,176.944,618.102,161.621z M526.572,239.245c11.679-17.76,10.986-45.044,0-61.984
		c-9.632-14.851-28.478-26.546-52.141-24.911c-23.062,1.59-40.106,16.978-46.922,34.178c-12.851,32.442,6.203,62.809,30.704,74.15
		C488.171,270.664,514.981,256.868,526.572,239.245z M343.514,195.217c-8.266,0.7-26.239,3.487-26.07,12.165
		c0.079,4.015,6.546,8.03,10.43,9.269c24.372,7.778,67.673,2.604,89.21-1.738c-0.965-6.318,0.173-10.596,0.579-16.8
		C395.944,194.503,368.152,193.137,343.514,195.217z M609.99,220.706c8.997-0.725,31.489-2.873,31.282-12.167
		c-0.085-3.774-6.505-7.745-11.008-9.267c-26.431-8.937-64.638-1.761-88.633,0.581c0.425,6.187,0.848,11.887-0.579,17.376
		C562.066,220.584,584.788,222.734,609.99,220.706z M389.277,231.132c-16.225,5.691-31.811,12.158-45.764,20.856
		c-4.787,2.979-17.402,11.05-14.483,17.955c3.088,7.297,26.451,2.168,31.862,0.58c22.919-6.713,46.099-21.003,63.723-31.86
		c-2.629-4.319-3.907-9.991-5.79-15.061C408,224.976,399.104,227.686,389.277,231.132z M606.514,248.512
		c-8.698-4.583-19.565-9.921-28.963-12.744c-1.924-0.575-4.363-0.026-6.374-0.578c-9.701-2.673-20.035-8.873-31.861-8.693
		c-1.658,5.483-4.312,9.98-6.372,15.063c9.999,5.605,20.79,12.98,33.021,18.534c11.104,5.052,26.1,11.354,38.232,13.907
		c6.281,1.318,19.542,3.239,24.332-2.315C627.604,261.054,616.016,253.517,606.514,248.512z M428.672,245.616
		c-16.807,11.789-37.353,29.899-51.56,46.923c-7.125,8.536-16.424,17.572-13.322,30.705c9.51,1.452,18.335-3.768,24.906-8.692
		c20.641-15.454,37.496-36.557,51.562-57.349C436.021,253.715,432.854,249.149,428.672,245.616z M585.659,299.494
		c-16.655-19.462-35.118-37.1-56.771-51.562c-0.385,0-0.771,0-1.159,0c0.164,1.697-11.494,9.743-11.587,11.587
		c-0.021,0.511,4.353,5.438,5.794,7.53c2.299,3.334,4.021,6.081,5.793,8.109c12.486,14.289,27.865,31.676,41.129,41.127
		c6.56,4.674,15.136,9.299,24.332,7.535C598.108,314.384,588.024,307.191,585.659,299.494z M447.785,262.417
		c-7.091,8.947-13.485,21.188-19.697,34.178c-8.814,18.436-18.032,38.285-13.323,61.402c5.999,1.539,10.796-2.96,13.907-6.37
		c8.495-9.318,14.702-23.774,20.273-37.657c5.714-14.229,10.947-30.078,12.746-45.761
		C456.664,266.665,452.135,264.634,447.785,262.417z M544.532,344.675c-0.755-19.544-15.197-47.921-23.756-63.724
		c-3.096-5.718-8.909-16.307-12.742-17.381c-3.07,3.502-9.819,3.316-13.904,5.798c7.741,30.877,17.892,59.35,33.6,82.258
		C535.233,359.45,545.167,361.192,544.532,344.675z M470.378,269.943c0,0.58,0,1.163,0,1.742
		c-2.692,13.708-4.314,31.208-4.055,47.501c0.163,10.096-0.224,20.614,1.741,29.545c0.905,4.129,5.334,20.795,11.003,20.858
		c6.442,0.062,9.993-17.011,11.007-22.599c4.388-24.146,1.002-53.752-3.476-76.469C481.869,271.501,474.396,271.481,470.378,269.943
		z M474.432,375.958c0,46.151,0,92.299,0,138.452c3.932-0.318,9.179,0.679,12.167-0.578c-0.386-46.152,0.777-93.848-0.581-139.035
		C484.481,375.205,478.962,376.614,474.432,375.958z"/>
	<path fill-rule="evenodd" clip-rule="evenodd" fill="#FFEF55" d="M458.214,260.677c-24.501-11.341-43.555-41.708-30.704-74.15
		c6.815-17.2,23.859-32.588,46.922-34.178c23.663-1.635,42.509,10.06,52.141,24.911c10.986,16.94,11.679,44.225,0,61.984
		C514.981,256.868,488.171,270.664,458.214,260.677z"/>
	<g>
		<path fill-rule="evenodd" clip-rule="evenodd" fill="#E6B6C8" d="M539.315,192.319c-0.667-6.091-3.262-10.253-5.213-15.059
			c10.193-8.029,23.856-14.299,37.655-20.855c13.546-6.445,29.042-13.619,44.021-14.482c5.715-0.332,12.141,1.509,13.325,4.632
			c2.181,5.721-7.069,12.21-11.003,15.065C596.939,176.944,568.026,186.035,539.315,192.319z"/>
		<path fill-rule="evenodd" clip-rule="evenodd" fill="#E6B6C8" d="M541.053,217.229c1.427-5.489,1.004-11.189,0.579-17.376
			c23.995-2.342,62.202-9.518,88.633-0.581c4.503,1.522,10.923,5.493,11.008,9.267c0.207,9.293-22.285,11.441-31.282,12.167
			C584.788,222.734,562.066,220.584,541.053,217.229z"/>
		<g>
			<path fill-rule="evenodd" clip-rule="evenodd" fill="#E6B6C8" d="M488.338,145.977c-4.536-0.501-11.248-1.209-15.644,0
				c-3.832-23.096-9.122-53.601-4.055-78.205c0.766-3.707,4.453-18.315,7.533-20.857c6.95-5.736,9.229,3.26,11.586,10.427
				c1.396,4.26,3.603,8.269,4.052,10.43c1.61,7.663,1.685,19.275,1.741,29.542C493.647,115.659,490.919,135.279,488.338,145.977z"/>
			<path fill-rule="evenodd" clip-rule="evenodd" fill="#E6B6C8" d="M464.006,147.715c-6.562,0.584-10.616,3.671-15.639,5.794
				c-11.205-18.297-26.936-44.784-33.019-70.098c-1.22-5.05-4.669-27.349,4.052-26.069c2.76,0.411,7.47,3.882,9.851,6.373
				C446.389,81.653,456.423,118.955,464.006,147.715z"/>
			<path fill-rule="evenodd" clip-rule="evenodd" fill="#E6B6C8" d="M511.511,154.085c-5.239-1.717-8.242-5.658-15.062-5.794
				c5.813-27.894,16.285-65.354,32.44-82.84c3.25-3.515,12.274-10.444,15.644-3.471c2.414,5.009-0.311,17.843-1.159,21.433
				C537.29,109.028,522.56,133.25,511.511,154.085z"/>
			<path fill-rule="evenodd" clip-rule="evenodd" fill="#E6B6C8" d="M441.414,158.145c-3.446,3.885-7.593,7.082-11.006,11.003
				c-17.749-9.071-40.258-30.122-54.452-48.079c-4.897-6.195-17.551-21.674-9.85-28.965c14.243,0.23,21.058,7.898,30.12,15.641
				C413.067,122.12,430.181,139.197,441.414,158.145z"/>
			<path fill-rule="evenodd" clip-rule="evenodd" fill="#E6B6C8" d="M594.351,93.839c1.798,13.69-6.917,21.45-13.905,30.705
				c-13.176,17.45-32.663,33.474-50.4,45.185c-5.167-2.554-7.545-7.906-12.163-11.008c10.611-15.604,25.068-34.781,41.134-48.663
				c5.903-5.105,13.431-11.029,20.271-14.481C583.447,93.479,588.714,91.439,594.351,93.839z"/>
			<path fill-rule="evenodd" clip-rule="evenodd" fill="#E6B6C8" d="M425.195,176.679c-2.126,4.831-4.319,9.583-5.795,15.065
				c-16.78-3.254-32.47-7.596-46.921-13.333c-12.493-4.954-27.146-10.903-37.078-19.69c-8.885-7.868-8.697-18.849,9.267-16.797
				c13.252,1.505,31.864,8.939,43.455,14.482C401.979,163.031,415.034,170.162,425.195,176.679z"/>
			<path fill-rule="evenodd" clip-rule="evenodd" fill="#E6B6C8" d="M417.663,198.112c-0.406,6.204-1.544,10.481-0.579,16.8
				c-21.537,4.342-64.838,9.516-89.21,1.738c-3.884-1.239-10.352-5.253-10.43-9.269c-0.169-8.677,17.804-11.464,26.07-12.165
				C368.152,193.137,395.944,194.503,417.663,198.112z"/>
			<path fill-rule="evenodd" clip-rule="evenodd" fill="#E6B6C8" d="M418.825,223.602c1.883,5.069,3.161,10.742,5.79,15.061
				c-17.624,10.857-40.804,25.146-63.723,31.86c-5.411,1.588-28.774,6.717-31.862-0.58c-2.918-6.904,9.697-14.975,14.483-17.955
				c13.953-8.698,29.539-15.165,45.764-20.856C399.104,227.686,408,224.976,418.825,223.602z"/>
			<path fill-rule="evenodd" clip-rule="evenodd" fill="#E6B6C8" d="M628.528,271.685c-4.79,5.555-18.051,3.633-24.332,2.315
				c-12.133-2.553-27.129-8.855-38.232-13.907c-12.23-5.554-23.021-12.929-33.021-18.534c2.061-5.083,4.714-9.58,6.372-15.063
				c11.826-0.18,22.16,6.02,31.861,8.693c2.011,0.552,4.45,0.003,6.374,0.578c9.397,2.823,20.265,8.162,28.963,12.744
				C616.016,253.517,627.604,261.054,628.528,271.685z"/>
			<path fill-rule="evenodd" clip-rule="evenodd" fill="#E6B6C8" d="M440.259,257.202c-14.066,20.792-30.922,41.895-51.562,57.349
				c-6.571,4.925-15.396,10.145-24.906,8.692c-3.102-13.133,6.197-22.169,13.322-30.705c14.207-17.024,34.753-35.134,51.56-46.923
				C432.854,249.149,436.021,253.715,440.259,257.202z"/>
			<path fill-rule="evenodd" clip-rule="evenodd" fill="#E6B6C8" d="M593.19,323.821c-9.196,1.764-17.772-2.861-24.332-7.535
				c-13.264-9.451-28.643-26.838-41.129-41.127c-1.772-2.029-3.494-4.775-5.793-8.109c-1.441-2.092-5.815-7.02-5.794-7.53
				c0.093-1.844,11.751-9.89,11.587-11.587c0.388,0,0.774,0,1.159,0c21.652,14.462,40.115,32.1,56.771,51.562
				C588.024,307.191,598.108,314.384,593.19,323.821z"/>
			<path fill-rule="evenodd" clip-rule="evenodd" fill="#E6B6C8" d="M461.691,268.208c-1.799,15.684-7.032,31.533-12.746,45.761
				c-5.571,13.883-11.778,28.339-20.273,37.657c-3.111,3.41-7.908,7.909-13.907,6.37c-4.709-23.117,4.509-42.967,13.323-61.402
				c6.212-12.989,12.606-25.23,19.697-34.178C452.135,264.634,456.664,266.665,461.691,268.208z"/>
			<path fill-rule="evenodd" clip-rule="evenodd" fill="#E6B6C8" d="M527.729,351.627c-15.708-22.908-25.858-51.381-33.6-82.258
				c4.085-2.482,10.834-2.296,13.904-5.798c3.833,1.074,9.646,11.663,12.742,17.381c8.559,15.803,23.001,44.18,23.756,63.724
				C545.167,361.192,535.233,359.45,527.729,351.627z"/>
			<path fill-rule="evenodd" clip-rule="evenodd" fill="#E6B6C8" d="M486.599,270.522c4.478,22.716,7.863,52.322,3.476,76.469
				c-1.014,5.588-4.564,22.661-11.007,22.599c-5.669-0.063-10.098-16.729-11.003-20.858c-1.965-8.931-1.578-19.449-1.741-29.545
				c-0.26-16.294,1.362-33.793,4.055-47.501c0-0.579,0-1.163,0-1.742C474.396,271.481,481.869,271.501,486.599,270.522z"/>
		</g>
	</g>
	<path fill-rule="evenodd" clip-rule="evenodd" fill="#386539" d="M486.018,374.797c1.358,45.188,0.195,92.883,0.581,139.035
		c-2.988,1.257-8.235,0.26-12.167,0.578c0-46.153,0-92.301,0-138.452C478.962,376.614,484.481,375.205,486.018,374.797z"/>
	<path fill-rule="evenodd" clip-rule="evenodd" d="M588.693,373.147c-11.146,0.067-24.251,3.243-34.402,7.438
		c-2.613,1.078-39.896,20.796-49.593,28.093c-10.844,8.153-22.557,16.095-27.319,27.737c-6.243,15.268,9.071,20.467,20.265,18.073
		c2.989-0.638,7.69-2.39,11.055-3.709c16.402-6.453,32.714-18.724,48.854-31.131c15.857-12.187,30.676-28.116,36.376-46.343
		C591.218,372.577,590.059,373.137,588.693,373.147z M576.516,393.076c-5.19,6.183-12.719,12.949-19.624,18.87
		c-6.792,5.841-13.804,11.668-21.031,16.346c-14.898,9.63-32.391,21.167-52.316,18.354c-1.656-6.14,2.145-11.771,5.791-16.149
		c8.479-10.175,21.968-19.313,35.429-27.179c18.595-10.844,37.048-19.212,58.206-22.79
		C582.864,384.022,578.936,390.189,576.516,393.076z"/>
	<path fill-rule="evenodd" clip-rule="evenodd" fill="#386539" d="M582.97,380.528c-0.105,3.494-4.034,9.661-6.454,12.548
		c-5.19,6.183-12.719,12.949-19.624,18.87c-6.792,5.841-13.804,11.668-21.031,16.346c-14.898,9.63-32.391,21.167-52.316,18.354
		c-1.656-6.14,2.145-11.771,5.791-16.149c8.479-10.175,21.968-19.313,35.429-27.179C543.358,392.475,561.812,384.106,582.97,380.528
		z"/>
	<rect x="474.432" y="415.331" fill-rule="evenodd" clip-rule="evenodd" fill="#386539" width="12.174" height="45.474"/>
</g>
<g>
	<path fill-rule="evenodd" clip-rule="evenodd" d="M384.544,323.385c8.308-3.479,20.917-10.293,32.839-10.702
		c11.753-0.4,17.021,7.467,9.964,15.867c-7.341,8.741-21.968,12.874-33.209,17.713c10.13,1.064,24.078-0.395,33.578,2.582
		c4.5,1.411,11.814,5.452,10.703,11.808c-0.498,2.835-4.635,6.316-7.381,7.38c-9.949,3.852-27.468,4.082-39.483,3.319
		c5.927,2.468,12.666,4.956,18.818,8.12c5.75,2.954,12.469,6.575,16.233,10.7c7.287,7.979,2.807,16.576-10.699,15.499
		c-11.842-0.944-24.235-7.345-32.099-10.335c3.685,3.979,8.961,8.562,13.651,14.022c4.19,4.882,9.557,11.17,10.701,17.343
		c1.448,7.821-3.283,12.59-12.547,9.965c-2.272-0.646-5.619-2.659-7.75-4.06c-7.821-5.146-15.398-13.653-21.4-19.188
		c2.199,7.847,17.392,34.133,7.38,43.541c-7.119,6.684-15.247-3.983-18.45-8.854c-4.646-7.077-9.27-16.533-11.809-25.46
		c-1.19,7.046,0.423,14.932-0.738,22.507c-0.665,4.364-1.886,8.59-2.95,12.175c0,0,0,16.638,0,25.092c0,24.717,0,50.393,0,75.272
		c-4.696,0.614-11.907,0.614-16.605,0c0-24.558,0-48.248,0-73.057c0-7.935,0-23.986,0-23.986c-0.286-1.58-1.636-2.785-2.215-4.427
		c-3.515-9.955-2.785-23.067-2.582-34.685c-5.144,10.19-9.008,23.75-16.604,31.733c-3.852,4.046-13.441,9.518-16.973,1.474
		c-1.27-2.891-1.043-6.926-0.739-10.33c1.034-11.511,7.465-23.818,10.7-32.102c-3.866,3.44-8.239,8.729-13.65,13.283
		c-4.743,3.991-11.069,9.604-16.605,10.7c-17.771,3.525-11.984-13.447-7.011-20.664c5.435-7.881,14.217-15.857,19.924-21.77
		c-9.865,3.356-24.952,12.974-39.112,11.067c-8.61-1.156-9.286-10.462-4.057-16.233c3.494-3.861,9.729-7.188,15.128-9.962
		c5.761-2.965,11.972-5.43,17.708-7.382c-8.589-0.69-18.127-0.063-26.934-1.473c-6.705-1.074-16.543-4.3-16.973-10.702
		c-0.27-3.982,3.522-7.938,7.01-9.592c9.065-4.304,22.854-2.942,35.423-3.691c-9.331-4.888-24.603-9.02-31.363-17.344
		c-2.123-2.61-3.73-5.689-3.323-10.698c1.854-4.172,7.094-5.401,13.285-5.169c12.346,0.469,25.897,7.869,33.947,11.441
		c-4.105-3.582-8.936-8.629-13.653-14.021c-4.385-5.016-9.871-10.946-11.44-16.975c-2.232-8.596,2.411-14.599,11.44-12.176
		c6.043,1.62,12.413,7.091,17.344,11.437c5.305,4.681,10.305,9.618,14.39,14.023c-1.695-4.928-5.26-10.247-7.378-16.236
		c-3.034-8.567-8.425-29.323,1.844-31.365c5.202-1.034,10.287,3.445,12.542,6.274c6.785,8.487,11.223,20.681,15.131,31.734
		c1.216-9.183-0.784-24.754,2.582-35.055c2.188-6.692,10.435-15.885,16.605-7.381c6.461,8.905,6.182,26.131,6.274,41.33
		c3.855-9.606,7.548-21.121,13.652-28.784c1.936-2.427,6.272-6.81,9.224-7.38c8.748-1.684,10.479,6.347,9.964,14.023
		c-0.718,10.689-7.322,24.646-10.332,31.73c-0.069,0.301-0.371,0.369-0.37,0.739c5.143-4.835,13.575-14.705,21.77-19.925
		c5.925-3.771,16.926-8.749,20.664-0.369c0.348,11.013-5.649,18.281-11.067,24.354C393.208,314.867,388.641,319.326,384.544,323.385
		z M339.898,288.331c-0.037-6.54-0.083-13.937-1.109-18.817c-0.286-1.376-1.692-3.93-2.581-6.643
		c-1.501-4.565-2.953-10.296-7.38-6.642c-1.962,1.619-4.311,10.924-4.798,13.285c-3.228,15.672,0.142,35.102,2.582,49.813
		c2.8-0.77,7.075-0.319,9.964,0C338.221,312.513,339.959,300.015,339.898,288.331z M298.941,266.929
		c-1.516-1.586-4.516-3.797-6.274-4.059c-5.555-0.815-3.358,13.388-2.581,16.604c3.875,16.124,13.894,32.996,21.032,44.649
		c3.199-1.352,5.781-3.317,9.961-3.69C316.249,302.114,309.857,278.354,298.941,266.929z M371.632,279.475
		c0.541-2.286,2.276-10.46,0.738-13.651c-2.146-4.441-7.894-0.028-9.964,2.211c-10.291,11.138-16.961,34.999-20.664,52.766
		c4.344,0.087,6.257,2.598,9.594,3.69C358.375,311.221,367.758,295.791,371.632,279.475z M277.906,294.974
		c-5.772-4.932-10.113-9.816-19.186-9.963c-4.905,4.645,3.155,14.504,6.274,18.45c9.041,11.438,23.377,24.847,34.684,30.625
		c2.174-2.498,4.815-4.534,7.01-7.009C299.534,315.008,288.633,304.131,277.906,294.974z M394.508,287.224
		c-4.357,2.199-9.152,5.972-12.912,9.224c-10.233,8.841-19.441,21.057-26.201,30.996c2.942,1.976,4.457,5.385,7.748,7.012
		c11.298-7.459,23.71-17.666,32.103-28.78c4.451-5.896,10.003-10.837,8.857-19.558C400.513,284.588,397.158,285.888,394.508,287.224
		z M272.745,325.969c-7.383-3.53-19.237-8.266-27.679-9.224c-11.442-1.308-11.562,5.687-5.903,10.698
		c6.326,5.597,15.66,9.387,23.617,12.543c9.205,3.654,19.198,6.42,29.887,8.492c0.939-3.491,2.337-6.519,3.691-9.596
		C289.886,334.731,281.57,330.189,272.745,325.969z M419.231,329.291c2.506-1.818,8.398-5.952,7.009-9.597
		c-0.754-1.989-4.848-3.16-8.488-2.949c-9.542,0.55-19.412,5.118-28.04,9.224c-8.789,4.176-17.492,8.17-23.985,13.284
		c1.243,3.061,2.896,5.712,3.32,9.592C387.336,344.842,405.752,339.052,419.231,329.291z M360.931,378.733
		c7.438-11.312,6.998-28.69,0-39.48c-6.135-9.459-18.139-16.909-33.211-15.868c-14.69,1.014-25.546,10.814-29.888,21.771
		c-8.185,20.664,3.951,40.007,19.558,47.23C336.471,398.747,353.548,389.959,360.931,378.733z M244.33,350.691
		c-5.265,0.444-16.713,2.221-16.605,7.747c0.05,2.558,4.17,5.115,6.644,5.904c15.524,4.954,43.104,1.658,56.823-1.107
		c-0.614-4.025,0.11-6.749,0.369-10.701C277.726,350.235,260.024,349.365,244.33,350.691z M414.065,366.926
		c5.73-0.462,20.056-1.83,19.925-7.749c-0.053-2.403-4.143-4.934-7.012-5.903c-16.835-5.692-41.171-1.121-56.455,0.37
		c0.271,3.94,0.54,7.571-0.369,11.068C383.54,366.848,398.012,368.218,414.065,366.926z M273.479,373.567
		c-10.334,3.624-20.262,7.743-29.149,13.284c-3.049,1.897-11.084,7.039-9.225,11.436c1.967,4.648,16.848,1.382,20.295,0.37
		c14.599-4.276,29.363-13.379,40.588-20.294c-1.674-2.75-2.488-6.363-3.688-9.594C285.405,369.646,279.739,371.372,273.479,373.567z
		 M411.851,384.638c-5.541-2.92-12.463-6.319-18.448-8.118c-1.225-0.367-2.779-0.017-4.06-0.368
		c-6.179-1.702-12.762-5.651-20.294-5.537c-1.056,3.492-2.747,6.357-4.059,9.595c6.369,3.569,13.243,8.267,21.033,11.806
		c7.072,3.217,16.624,7.231,24.353,8.857c4.001,0.84,12.448,2.063,15.499-1.475C425.285,392.625,417.903,387.825,411.851,384.638z
		 M298.573,382.792c-10.706,7.51-23.792,19.045-32.841,29.889c-4.539,5.437-10.461,11.192-8.486,19.558
		c6.057,0.925,11.678-2.4,15.864-5.537c13.147-9.844,23.883-23.285,32.843-36.529C303.253,387.951,301.237,385.044,298.573,382.792z
		 M398.567,417.11c-10.608-12.396-22.369-23.631-36.16-32.843c-0.245,0-0.492,0-0.739,0c0.104,1.081-7.321,6.206-7.38,7.381
		c-0.014,0.325,2.773,3.464,3.691,4.797c1.464,2.124,2.561,3.872,3.689,5.164c7.954,9.103,17.75,20.177,26.197,26.196
		c4.178,2.978,9.641,5.924,15.499,4.801C406.497,426.595,400.073,422.014,398.567,417.11z M310.747,393.493
		c-4.517,5.7-8.59,13.497-12.546,21.771c-5.614,11.741-11.486,24.385-8.486,39.11c3.821,0.979,6.876-1.887,8.858-4.058
		c5.411-5.936,9.364-15.144,12.913-23.986c3.64-9.062,6.973-19.158,8.119-29.147C316.402,396.199,313.517,394.906,310.747,393.493z
		 M372.371,445.89c-0.48-12.45-9.68-30.524-15.131-40.59c-1.972-3.643-5.675-10.387-8.116-11.071
		c-1.956,2.23-6.254,2.113-8.856,3.693c4.931,19.668,11.396,37.803,21.401,52.396C366.448,455.3,372.775,456.41,372.371,445.89z
		 M325.137,398.287c0,0.37,0,0.741,0,1.11c-1.714,8.731-2.748,19.878-2.583,30.256c0.104,6.431-0.142,13.131,1.109,18.819
		c0.577,2.631,3.397,13.246,7.008,13.286c4.104,0.04,6.366-10.835,7.011-14.395c2.794-15.38,0.638-34.238-2.214-48.707
		C332.457,399.28,327.697,399.267,325.137,398.287z M327.72,465.814c0,29.397,0,58.791,0,88.188c2.504-0.202,5.846,0.433,7.75-0.367
		c-0.246-29.398,0.495-59.777-0.371-88.56C334.121,465.335,330.605,466.233,327.72,465.814z"/>
	<path fill-rule="evenodd" clip-rule="evenodd" fill="#FFEF55" d="M317.39,392.386c-15.606-7.224-27.743-26.566-19.558-47.23
		c4.341-10.956,15.198-20.757,29.888-21.771c15.072-1.041,27.077,6.409,33.211,15.868c6.998,10.79,7.438,28.169,0,39.48
		C353.548,389.959,336.471,398.747,317.39,392.386z"/>
	<g>
		<path fill-rule="evenodd" clip-rule="evenodd" fill="#E6B6C8" d="M369.048,348.845c-0.424-3.88-2.078-6.531-3.32-9.592
			c6.493-5.114,15.196-9.108,23.985-13.284c8.628-4.105,18.499-8.674,28.04-9.224c3.64-0.211,7.734,0.96,8.488,2.949
			c1.389,3.645-4.503,7.778-7.009,9.597C405.752,339.052,387.336,344.842,369.048,348.845z"/>
		<path fill-rule="evenodd" clip-rule="evenodd" fill="#E6B6C8" d="M370.154,364.712c0.909-3.497,0.64-7.128,0.369-11.068
			c15.284-1.491,39.62-6.062,56.455-0.37c2.869,0.97,6.959,3.5,7.012,5.903c0.131,5.919-14.195,7.287-19.925,7.749
			C398.012,368.218,383.54,366.848,370.154,364.712z"/>
		<g>
			<path fill-rule="evenodd" clip-rule="evenodd" fill="#E6B6C8" d="M336.577,319.326c-2.889-0.319-7.165-0.77-9.964,0
				c-2.44-14.711-5.81-34.141-2.582-49.813c0.487-2.361,2.836-11.667,4.798-13.285c4.427-3.654,5.879,2.077,7.38,6.642
				c0.889,2.713,2.295,5.267,2.581,6.643c1.025,4.88,1.072,12.278,1.109,18.817C339.959,300.015,338.221,312.513,336.577,319.326z"
				/>
			<path fill-rule="evenodd" clip-rule="evenodd" fill="#E6B6C8" d="M321.079,320.434c-4.18,0.373-6.762,2.339-9.961,3.69
				c-7.138-11.653-17.157-28.525-21.032-44.649c-0.777-3.217-2.974-17.42,2.581-16.604c1.758,0.261,4.758,2.473,6.274,4.059
				C309.857,278.354,316.249,302.114,321.079,320.434z"/>
			<path fill-rule="evenodd" clip-rule="evenodd" fill="#E6B6C8" d="M351.337,324.49c-3.337-1.093-5.25-3.604-9.594-3.69
				c3.703-17.767,10.373-41.627,20.664-52.766c2.07-2.239,7.818-6.652,9.964-2.211c1.538,3.191-0.198,11.365-0.738,13.651
				C367.758,295.791,358.375,311.221,351.337,324.49z"/>
			<path fill-rule="evenodd" clip-rule="evenodd" fill="#E6B6C8" d="M306.689,327.077c-2.195,2.475-4.836,4.511-7.01,7.009
				c-11.306-5.778-25.643-19.187-34.684-30.625c-3.12-3.945-11.179-13.805-6.274-18.45c9.073,0.147,13.413,5.031,19.186,9.963
				C288.633,304.131,299.534,315.008,306.689,327.077z"/>
			<path fill-rule="evenodd" clip-rule="evenodd" fill="#E6B6C8" d="M404.103,286.117c1.146,8.721-4.406,13.663-8.857,19.558
				c-8.392,11.114-20.805,21.321-32.103,28.78c-3.291-1.627-4.806-5.036-7.748-7.012c6.759-9.938,15.967-22.154,26.201-30.996
				c3.76-3.252,8.555-7.025,12.912-9.224C397.158,285.888,400.513,284.588,404.103,286.117z"/>
			<path fill-rule="evenodd" clip-rule="evenodd" fill="#E6B6C8" d="M296.358,338.883c-1.354,3.077-2.751,6.104-3.691,9.596
				c-10.688-2.072-20.682-4.838-29.887-8.492c-7.958-3.156-17.291-6.946-23.617-12.543c-5.66-5.012-5.54-12.006,5.903-10.698
				c8.441,0.958,20.296,5.693,27.679,9.224C281.57,330.189,289.886,334.731,296.358,338.883z"/>
			<path fill-rule="evenodd" clip-rule="evenodd" fill="#E6B6C8" d="M291.56,352.534c-0.259,3.952-0.983,6.676-0.369,10.701
				c-13.718,2.766-41.299,6.062-56.823,1.107c-2.474-0.789-6.594-3.347-6.644-5.904c-0.108-5.526,11.34-7.303,16.605-7.747
				C260.024,349.365,277.726,350.235,291.56,352.534z"/>
			<path fill-rule="evenodd" clip-rule="evenodd" fill="#E6B6C8" d="M292.301,368.77c1.199,3.23,2.013,6.844,3.688,9.594
				c-11.226,6.915-25.99,16.018-40.588,20.294c-3.447,1.012-18.328,4.278-20.295-0.37c-1.859-4.396,6.176-9.538,9.225-11.436
				c8.888-5.541,18.815-9.66,29.149-13.284C279.739,371.372,285.405,369.646,292.301,368.77z"/>
			<path fill-rule="evenodd" clip-rule="evenodd" fill="#E6B6C8" d="M425.873,399.397c-3.051,3.538-11.498,2.314-15.499,1.475
				c-7.729-1.626-17.28-5.641-24.353-8.857c-7.79-3.539-14.664-8.236-21.033-11.806c1.312-3.237,3.002-6.103,4.059-9.595
				c7.533-0.114,14.115,3.835,20.294,5.537c1.281,0.352,2.835,0.001,4.06,0.368c5.985,1.799,12.908,5.198,18.448,8.118
				C417.903,387.825,425.285,392.625,425.873,399.397z"/>
			<path fill-rule="evenodd" clip-rule="evenodd" fill="#E6B6C8" d="M305.953,390.172c-8.96,13.244-19.696,26.686-32.843,36.529
				c-4.186,3.137-9.807,6.462-15.864,5.537c-1.976-8.365,3.947-14.121,8.486-19.558c9.049-10.844,22.136-22.379,32.841-29.889
				C301.237,385.044,303.253,387.951,305.953,390.172z"/>
			<path fill-rule="evenodd" clip-rule="evenodd" fill="#E6B6C8" d="M403.364,432.606c-5.858,1.123-11.321-1.823-15.499-4.801
				c-8.448-6.02-18.244-17.094-26.197-26.196c-1.129-1.292-2.225-3.04-3.689-5.164c-0.918-1.333-3.705-4.472-3.691-4.797
				c0.059-1.175,7.485-6.3,7.38-7.381c0.247,0,0.494,0,0.739,0c13.791,9.212,25.552,20.446,36.16,32.843
				C400.073,422.014,406.497,426.595,403.364,432.606z"/>
			<path fill-rule="evenodd" clip-rule="evenodd" fill="#E6B6C8" d="M319.604,397.184c-1.146,9.989-4.479,20.085-8.119,29.147
				c-3.549,8.843-7.502,18.051-12.913,23.986c-1.982,2.171-5.038,5.037-8.858,4.058c-3-14.726,2.872-27.369,8.486-39.11
				c3.957-8.274,8.03-16.071,12.546-21.771C313.517,394.906,316.402,396.199,319.604,397.184z"/>
			<path fill-rule="evenodd" clip-rule="evenodd" fill="#E6B6C8" d="M361.668,450.317c-10.005-14.593-16.471-32.728-21.401-52.396
				c2.602-1.58,6.901-1.463,8.856-3.693c2.441,0.685,6.145,7.429,8.116,11.071c5.452,10.065,14.651,28.14,15.131,40.59
				C372.775,456.41,366.448,455.3,361.668,450.317z"/>
			<path fill-rule="evenodd" clip-rule="evenodd" fill="#E6B6C8" d="M335.47,398.657c2.852,14.469,5.008,33.327,2.214,48.707
				c-0.646,3.56-2.908,14.435-7.011,14.395c-3.611-0.04-6.432-10.655-7.008-13.286c-1.251-5.688-1.005-12.389-1.109-18.819
				c-0.166-10.378,0.868-21.524,2.583-30.256c0-0.369,0-0.74,0-1.11C327.697,399.267,332.457,399.28,335.47,398.657z"/>
		</g>
	</g>
	<path fill-rule="evenodd" clip-rule="evenodd" fill="#386539" d="M335.099,465.076c0.865,28.782,0.125,59.161,0.371,88.56
		c-1.904,0.8-5.246,0.165-7.75,0.367c0-29.397,0-58.791,0-88.188C330.605,466.233,334.121,465.335,335.099,465.076z"/>
	<path fill-rule="evenodd" clip-rule="evenodd" d="M400.5,464.025c-7.1,0.043-15.447,2.065-21.913,4.738
		c-1.664,0.687-25.412,13.246-31.588,17.893c-6.907,5.194-14.367,10.253-17.401,17.668c-3.977,9.726,5.778,13.037,12.908,11.512
		c1.904-0.406,4.898-1.522,7.041-2.361c10.448-4.111,20.838-11.927,31.118-19.83c10.1-7.762,19.539-17.909,23.17-29.519
		C402.108,463.662,401.369,464.018,400.5,464.025z M392.743,476.719c-3.306,3.938-8.101,8.248-12.499,12.02
		c-4.327,3.72-8.793,7.432-13.396,10.412c-9.49,6.133-20.632,13.481-33.324,11.69c-1.055-3.91,1.366-7.497,3.688-10.286
		c5.401-6.481,13.993-12.303,22.567-17.312c11.845-6.907,23.598-12.237,37.075-14.517
		C396.787,470.952,394.284,474.88,392.743,476.719z"/>
	<path fill-rule="evenodd" clip-rule="evenodd" fill="#386539" d="M396.854,468.727c-0.067,2.226-2.57,6.153-4.111,7.992
		c-3.306,3.938-8.101,8.248-12.499,12.02c-4.327,3.72-8.793,7.432-13.396,10.412c-9.49,6.133-20.632,13.481-33.324,11.69
		c-1.055-3.91,1.366-7.497,3.688-10.286c5.401-6.481,13.993-12.303,22.567-17.312C371.624,476.336,383.377,471.006,396.854,468.727z
		"/>
	<rect x="327.72" y="490.895" fill-rule="evenodd" clip-rule="evenodd" fill="#386539" width="7.754" height="28.964"/>
</g>
</svg>
