<?xml version="1.0" encoding="utf-8"?>
<!-- Generator: Adobe Illustrator 15.1.0, SVG Export Plug-In . SVG Version: 6.00 Build 0)  -->
<!DOCTYPE svg PUBLIC "-//W3C//DTD SVG 1.1//EN" "http://www.w3.org/Graphics/SVG/1.1/DTD/svg11.dtd">
<svg version="1.1" id="Calque_1" xmlns="http://www.w3.org/2000/svg" xmlns:xlink="http://www.w3.org/1999/xlink" x="0px" y="0px"
	 width="273.529px" height="357.518px" viewBox="0 0 273.529 357.518" enable-background="new 0 0 273.529 357.518"
	 xml:space="preserve">
<g>
	<path fill-rule="evenodd" clip-rule="evenodd" d="M141.878,48.813c12.177,3.454,28.17,8.235,37.262,15.671
		c3.572,2.921,8.027,7.073,7.312,13.232c9.869,5.384,20.459,15.07,17.412,29.948c10.939,4.55,18.212,26.221,8.009,36.564
		c9.747,4.419,9.724,23.197,1.394,29.601c5.453,13.704-6.369,28.351-13.232,36.216c1.518,13.933-6.375,24.191-16.367,28.903
		c-0.92,11.498-10.251,17.302-20.895,20.894c-18.536,6.256-43.682,5.353-60.941-1.044c-10.316-3.823-21.221-10.222-21.59-21.242
		c-7.91-6.45-17.492-14.666-15.323-28.903c-8.61-6.812-22.142-25.811-12.884-36.913c-4.747-4.466-7.861-13.886-4.527-21.242
		c1.592-3.514,4.409-5.069,6.27-7.661c-1.566-1.918-2.532-3.935-3.136-6.269c-3.174-12.293,4.21-24.7,11.491-29.6
		c-2.641-15.944,6.327-26.125,18.109-29.948c1.436-7.078,6.004-11.388,10.795-14.974c9.51-7.12,24.113-11.002,36.914-13.93"/>
	<g>
		<path fill-rule="evenodd" clip-rule="evenodd" fill="#FAE053" stroke="#000000" stroke-width="4" stroke-miterlimit="10" d="
			M126.722,51.736c1.326,6.771,0.879,15.117,7.9,15.083c5.749-0.027,7.877-6.727,7.542-14.365
			c15.966,4.026,31.312,8.672,39.505,20.471c-24.795,8.671-70.449,10.645-95.889,1.077C92.786,59.938,110.2,56.284,126.722,51.736z"
			/>
		<path fill-rule="evenodd" clip-rule="evenodd" fill="#FAE053" stroke="#000000" stroke-width="4" stroke-miterlimit="10" d="
			M209.321,147.983c3.572,3.467,8.305,7.192,6.465,14.365c-2.275,8.875-21.88,14.074-31.963,16.161
			c-25.297,5.234-61.618,5.773-89.424,2.514c-13.797-1.617-29.01-4.024-37.709-10.056c-2.334-1.618-6.398-5.917-6.822-8.26
			c-1.038-5.735,2.889-10.499,4.309-13.647C92.163,165.306,173.475,162.677,209.321,147.983z"/>
		<path fill-rule="evenodd" clip-rule="evenodd" fill="#FAE053" stroke="#000000" stroke-width="4" stroke-miterlimit="10" d="
			M112.356,190.002c-4.426,13.175,3.32,26.271,16.52,26.216c12.298-0.052,21.078-12.603,15.802-25.856
			c24.95-0.55,47.578-5.333,66.439-10.774c0.712,5.488-2.13,9.998-4.31,14.365c-2.244,4.496-4.613,10.13-8.619,12.569
			c-8.815,5.368-24.874,8.297-40.223,9.696c-30.768,2.806-70.737,2.537-89.783-9.337c-7.745-4.829-15.648-16.842-15.441-27.294
			c-0.017-0.614,0.266-0.93,0.718-1.077C70.058,185.373,90.019,188.876,112.356,190.002z"/>
		<path fill-rule="evenodd" clip-rule="evenodd" fill="#FAE053" stroke="#000000" stroke-width="4" stroke-miterlimit="10" d="
			M196.393,215.5c-0.96,11.986-6.937,17.854-16.161,21.907c-13.15,4.204-31.745,6.823-50.637,6.823
			c-25.551,0-52.709-5.489-59.975-22.984c-0.783-1.884-0.8-3.833-1.438-5.388c0.127-0.411,0.633-0.909,0.719-0.358
			C103.896,229.26,160.626,226.864,196.393,215.5z"/>
		<path fill-rule="evenodd" clip-rule="evenodd" fill="#FAE053" stroke="#000000" stroke-width="4" stroke-miterlimit="10" d="
			M86.858,245.667c-0.066-0.306,0.14-0.339,0.358-0.359c25.327,6.645,64.485,9.316,89.423,0.359
			C162.909,266.673,104.195,262.938,86.858,245.667z"/>
		<path fill-rule="evenodd" clip-rule="evenodd" fill="#FAE053" stroke="#000000" stroke-width="4" stroke-miterlimit="10" d="
			M85.78,74.002c25.439,9.567,71.094,7.594,95.889-1.077c-8.193-11.799-23.539-16.444-39.505-20.471
			c0.335,7.639-1.793,14.338-7.542,14.365c-7.021,0.034-6.574-8.312-7.9-15.083C110.2,56.284,92.786,59.938,85.78,74.002z
			 M195.315,90.522c-2.284-3.051-5.675-8.63-9.697-8.979c-2.656-0.23-7.738,2.085-11.851,2.873
			c-24.759,4.743-58.786,5.124-81.882-0.359c-4.336-1.029-8.239-3.174-11.852-3.231c-8.184-0.132-16.902,14.769-14.365,22.266
			c1.826,5.397,10.833,5.531,17.238,7.183c11.307,3.604,25.558,5.517,39.145,5.387c1.243-0.012,2.674-0.411,3.951-0.359
			c16.824,0.699,31.949-1.473,46.688-3.231c9.748-1.164,22.957-3.379,28.012-8.261C201.667,99.017,198.386,94.623,195.315,90.522z
			 M61.359,112.788c-4.315,5.647-9.229,13.025-7.542,21.548c2.162,10.911,24.835,14.209,36.631,15.803
			c28.663,3.87,61.867,2.896,88.707-2.515c9.748-1.966,31.238-5.99,33.758-14.365c2.094-6.96-5.539-19.885-9.338-20.471
			c-1.796-0.276-4.509,2.129-6.823,2.873c-3.684,1.185-8.585,1.598-11.852,2.515c-1.263,0.354-2.414,1.56-3.591,1.796
			c-1.136,0.227-2.351-0.239-3.592,0c-1.191,0.229-2.423,0.882-3.592,1.077c-22.262,3.705-51.564,4.027-74.699,1.437
			c-5.652-0.634-10.446-2.841-17.237-2.514c-6.013-3.206-14.899-3.537-19.753-7.901C62.013,112.245,61.623,112.453,61.359,112.788z
			 M54.177,149.061c-1.42,3.148-5.347,7.912-4.309,13.647c0.424,2.343,4.488,6.642,6.822,8.26
			c8.699,6.031,23.912,8.438,37.709,10.056c27.806,3.26,64.127,2.721,89.424-2.514c10.083-2.087,29.688-7.286,31.963-16.161
			c1.84-7.173-2.893-10.898-6.465-14.365C173.475,162.677,92.163,165.306,54.177,149.061z M53.459,178.51
			c-0.452,0.147-0.734,0.463-0.718,1.077c-0.207,10.452,7.696,22.465,15.441,27.294c19.046,11.874,59.016,12.143,89.783,9.337
			c15.349-1.399,31.407-4.328,40.223-9.696c4.006-2.439,6.375-8.073,8.619-12.569c2.18-4.367,5.021-8.877,4.31-14.365
			c-18.861,5.441-41.489,10.225-66.439,10.774c5.276,13.254-3.504,25.805-15.802,25.856c-13.199,0.056-20.945-13.041-16.52-26.216
			C90.019,188.876,70.058,185.373,53.459,178.51z M68.901,215.5c-0.086-0.551-0.592-0.053-0.719,0.358
			c0.638,1.555,0.654,3.504,1.438,5.388c7.266,17.495,34.424,22.984,59.975,22.984c18.892,0,37.486-2.619,50.637-6.823
			c9.225-4.053,15.201-9.921,16.161-21.907C160.626,226.864,103.896,229.26,68.901,215.5z M176.64,245.667
			c-24.938,8.957-64.096,6.285-89.423-0.359c-0.219,0.021-0.425,0.054-0.358,0.359C104.195,262.938,162.909,266.673,176.64,245.667z
			"/>
		<path fill-rule="evenodd" clip-rule="evenodd" fill="#FAE053" stroke="#000000" stroke-width="4" stroke-miterlimit="10" d="
			M200.702,103.81c-5.055,4.882-18.264,7.097-28.012,8.261c-14.738,1.759-29.863,3.931-46.688,3.231
			c-1.277-0.052-2.708,0.348-3.951,0.359c-13.587,0.13-27.838-1.782-39.145-5.387c-6.405-1.651-15.412-1.785-17.238-7.183
			c-2.537-7.497,6.182-22.397,14.365-22.266c3.612,0.058,7.516,2.202,11.852,3.231c23.096,5.483,57.123,5.103,81.882,0.359
			c4.112-0.788,9.194-3.104,11.851-2.873c4.022,0.349,7.413,5.928,9.697,8.979C198.386,94.623,201.667,99.017,200.702,103.81z"/>
		<path fill-rule="evenodd" clip-rule="evenodd" fill="#FAE053" stroke="#000000" stroke-width="4" stroke-miterlimit="10" d="
			M62.437,112.07c4.854,4.364,13.74,4.695,19.753,7.901c6.791-0.327,11.585,1.88,17.237,2.514
			c23.135,2.591,52.438,2.269,74.699-1.437c1.169-0.195,2.4-0.849,3.592-1.077c1.241-0.239,2.456,0.227,3.592,0
			c1.177-0.236,2.328-1.441,3.591-1.796c3.267-0.917,8.168-1.33,11.852-2.515c2.314-0.744,5.027-3.149,6.823-2.873
			c3.799,0.586,11.432,13.511,9.338,20.471c-2.52,8.375-24.01,12.399-33.758,14.365c-26.84,5.411-60.044,6.385-88.707,2.515
			c-11.796-1.594-34.469-4.892-36.631-15.803c-1.688-8.522,3.227-15.9,7.542-21.548C61.623,112.453,62.013,112.245,62.437,112.07z"
			/>
	</g>
</g>
</svg>
